<svg width="949" height="633" viewBox="0 0 949 633" fill="none" xmlns="http://www.w3.org/2000/svg">
<g id="coaching" clip-path="url(#clip0)">
<path id="Vector" opacity="0.1" d="M272.345 108.537H201.23C197.128 108.537 193.802 111.314 193.802 114.74V124.041C193.802 127.467 197.128 130.244 201.23 130.244H272.345C276.447 130.244 279.772 127.467 279.772 124.041V114.74C279.772 111.314 276.447 108.537 272.345 108.537Z" fill="#6C63FF"/>
<path id="Vector_2" opacity="0.1" d="M362.313 130.244H291.198C287.096 130.244 283.771 133.021 283.771 136.447V145.748C283.771 149.174 287.096 151.951 291.198 151.951H362.313C366.415 151.951 369.741 149.174 369.741 145.748V136.447C369.741 133.021 366.415 130.244 362.313 130.244Z" fill="#6C63FF"/>
<path id="Vector_3" opacity="0.1" d="M452.282 151.951H381.167C377.065 151.951 373.739 154.729 373.739 158.155V167.455C373.739 170.881 377.065 173.659 381.167 173.659H452.282C456.384 173.659 459.709 170.881 459.709 167.455V158.155C459.709 154.729 456.384 151.951 452.282 151.951Z" fill="#6C63FF"/>
<path id="Vector_4" opacity="0.1" d="M272.345 75.9757H201.23C197.128 75.9757 193.802 78.753 193.802 82.179V91.4798C193.802 94.9057 197.128 97.6831 201.23 97.6831H272.345C276.447 97.6831 279.772 94.9057 279.772 91.4798V82.179C279.772 78.753 276.447 75.9757 272.345 75.9757Z" fill="#6C63FF"/>
<path id="Vector_5" opacity="0.1" d="M362.313 97.6831H291.198C287.096 97.6831 283.771 100.46 283.771 103.886V113.187C283.771 116.613 287.096 119.39 291.198 119.39H362.313C366.415 119.39 369.741 116.613 369.741 113.187V103.886C369.741 100.46 366.415 97.6831 362.313 97.6831Z" fill="#6C63FF"/>
<path id="Vector_6" opacity="0.1" d="M452.282 119.39H381.167C377.065 119.39 373.739 122.168 373.739 125.594V134.894C373.739 138.32 377.065 141.098 381.167 141.098H452.282C456.384 141.098 459.709 138.32 459.709 134.894V125.594C459.709 122.168 456.384 119.39 452.282 119.39Z" fill="#6C63FF"/>
<path id="Vector_7" opacity="0.1" d="M552.247 108.537H481.132C477.03 108.537 473.704 111.314 473.704 114.74V124.041C473.704 127.467 477.03 130.244 481.132 130.244H552.247C556.349 130.244 559.674 127.467 559.674 124.041V114.74C559.674 111.314 556.349 108.537 552.247 108.537Z" fill="#6C63FF"/>
<path id="Vector_8" opacity="0.1" d="M642.215 130.244H571.1C566.998 130.244 563.673 133.021 563.673 136.447V145.748C563.673 149.174 566.998 151.951 571.1 151.951H642.215C646.317 151.951 649.643 149.174 649.643 145.748V136.447C649.643 133.021 646.317 130.244 642.215 130.244Z" fill="#6C63FF"/>
<path id="Vector_9" opacity="0.1" d="M732.184 151.951H661.069C656.967 151.951 653.641 154.729 653.641 158.155V167.455C653.641 170.881 656.967 173.659 661.069 173.659H732.184C736.286 173.659 739.611 170.881 739.611 167.455V158.155C739.611 154.729 736.286 151.951 732.184 151.951Z" fill="#6C63FF"/>
<path id="Vector_10" opacity="0.1" d="M552.247 75.9757H481.132C477.03 75.9757 473.704 78.753 473.704 82.179V91.4798C473.704 94.9057 477.03 97.6831 481.132 97.6831H552.247C556.349 97.6831 559.674 94.9057 559.674 91.4798V82.179C559.674 78.753 556.349 75.9757 552.247 75.9757Z" fill="#6C63FF"/>
<path id="Vector_11" opacity="0.1" d="M642.215 97.6831H571.1C566.998 97.6831 563.673 100.46 563.673 103.886V113.187C563.673 116.613 566.998 119.39 571.1 119.39H642.215C646.317 119.39 649.643 116.613 649.643 113.187V103.886C649.643 100.46 646.317 97.6831 642.215 97.6831Z" fill="#6C63FF"/>
<path id="Vector_12" opacity="0.1" d="M732.184 119.39H661.069C656.967 119.39 653.641 122.168 653.641 125.594V134.894C653.641 138.32 656.967 141.098 661.069 141.098H732.184C736.286 141.098 739.611 138.32 739.611 134.894V125.594C739.611 122.168 736.286 119.39 732.184 119.39Z" fill="#6C63FF"/>
<path id="Vector_13" opacity="0.1" d="M272.345 32.561H201.23C197.128 32.561 193.802 35.3383 193.802 38.7643V48.0651C193.802 51.4911 197.128 54.2684 201.23 54.2684H272.345C276.447 54.2684 279.772 51.4911 279.772 48.0651V38.7643C279.772 35.3383 276.447 32.561 272.345 32.561Z" fill="#6C63FF"/>
<path id="Vector_14" opacity="0.1" d="M362.313 54.2684H291.198C287.096 54.2684 283.771 57.0457 283.771 60.4717V69.7724C283.771 73.1984 287.096 75.9757 291.198 75.9757H362.313C366.415 75.9757 369.741 73.1984 369.741 69.7724V60.4717C369.741 57.0457 366.415 54.2684 362.313 54.2684Z" fill="#6C63FF"/>
<path id="Vector_15" opacity="0.1" d="M452.282 75.9757H381.167C377.065 75.9757 373.739 78.753 373.739 82.179V91.4798C373.739 94.9057 377.065 97.6831 381.167 97.6831H452.282C456.384 97.6831 459.709 94.9057 459.709 91.4798V82.179C459.709 78.753 456.384 75.9757 452.282 75.9757Z" fill="#6C63FF"/>
<path id="Vector_16" opacity="0.1" d="M272.345 0H201.23C197.128 0 193.802 2.77731 193.802 6.20329V15.5041C193.802 18.93 197.128 21.7073 201.23 21.7073H272.345C276.447 21.7073 279.772 18.93 279.772 15.5041V6.20329C279.772 2.77731 276.447 0 272.345 0Z" fill="#6C63FF"/>
<path id="Vector_17" opacity="0.1" d="M362.313 21.7074H291.198C287.096 21.7074 283.771 24.4847 283.771 27.9106V37.2114C283.771 40.6374 287.096 43.4147 291.198 43.4147H362.313C366.415 43.4147 369.741 40.6374 369.741 37.2114V27.9106C369.741 24.4847 366.415 21.7074 362.313 21.7074Z" fill="#6C63FF"/>
<path id="Vector_18" opacity="0.1" d="M452.282 43.4147H381.167C377.065 43.4147 373.739 46.192 373.739 49.618V58.9187C373.739 62.3447 377.065 65.122 381.167 65.122H452.282C456.384 65.122 459.709 62.3447 459.709 58.9187V49.618C459.709 46.192 456.384 43.4147 452.282 43.4147Z" fill="#6C63FF"/>
<path id="Vector_19" opacity="0.1" d="M552.247 32.561H481.132C477.03 32.561 473.704 35.3383 473.704 38.7643V48.0651C473.704 51.4911 477.03 54.2684 481.132 54.2684H552.247C556.349 54.2684 559.674 51.4911 559.674 48.0651V38.7643C559.674 35.3383 556.349 32.561 552.247 32.561Z" fill="#6C63FF"/>
<path id="Vector_20" opacity="0.1" d="M642.215 54.2684H571.1C566.998 54.2684 563.673 57.0457 563.673 60.4717V69.7724C563.673 73.1984 566.998 75.9757 571.1 75.9757H642.215C646.317 75.9757 649.643 73.1984 649.643 69.7724V60.4717C649.643 57.0457 646.317 54.2684 642.215 54.2684Z" fill="#6C63FF"/>
<path id="Vector_21" opacity="0.1" d="M732.184 75.9757H661.069C656.967 75.9757 653.641 78.753 653.641 82.179V91.4798C653.641 94.9057 656.967 97.6831 661.069 97.6831H732.184C736.286 97.6831 739.611 94.9057 739.611 91.4798V82.179C739.611 78.753 736.286 75.9757 732.184 75.9757Z" fill="#6C63FF"/>
<path id="Vector_22" opacity="0.1" d="M552.247 0H481.132C477.03 0 473.704 2.77731 473.704 6.20329V15.5041C473.704 18.93 477.03 21.7073 481.132 21.7073H552.247C556.349 21.7073 559.674 18.93 559.674 15.5041V6.20329C559.674 2.77731 556.349 0 552.247 0Z" fill="#6C63FF"/>
<path id="Vector_23" opacity="0.1" d="M642.215 21.7074H571.1C566.998 21.7074 563.673 24.4847 563.673 27.9106V37.2114C563.673 40.6374 566.998 43.4147 571.1 43.4147H642.215C646.317 43.4147 649.643 40.6374 649.643 37.2114V27.9106C649.643 24.4847 646.317 21.7074 642.215 21.7074Z" fill="#6C63FF"/>
<path id="Vector_24" opacity="0.1" d="M732.184 43.4147H661.069C656.967 43.4147 653.641 46.192 653.641 49.618V58.9187C653.641 62.3447 656.967 65.122 661.069 65.122H732.184C736.286 65.122 739.611 62.3447 739.611 58.9187V49.618C739.611 46.192 736.286 43.4147 732.184 43.4147Z" fill="#6C63FF"/>
<path id="Vector_25" opacity="0.1" d="M272.345 495.094H201.23C197.128 495.094 193.802 497.872 193.802 501.298V510.599C193.802 514.025 197.128 516.802 201.23 516.802H272.345C276.447 516.802 279.772 514.025 279.772 510.599V501.298C279.772 497.872 276.447 495.094 272.345 495.094Z" fill="#6C63FF"/>
<path id="Vector_26" opacity="0.1" d="M362.313 516.802H291.198C287.096 516.802 283.771 519.579 283.771 523.005V532.306C283.771 535.732 287.096 538.509 291.198 538.509H362.313C366.415 538.509 369.741 535.732 369.741 532.306V523.005C369.741 519.579 366.415 516.802 362.313 516.802Z" fill="#6C63FF"/>
<path id="Vector_27" opacity="0.1" d="M452.282 538.509H381.167C377.065 538.509 373.739 541.287 373.739 544.712V554.013C373.739 557.439 377.065 560.217 381.167 560.217H452.282C456.384 560.217 459.709 557.439 459.709 554.013V544.712C459.709 541.287 456.384 538.509 452.282 538.509Z" fill="#6C63FF"/>
<path id="Vector_28" opacity="0.1" d="M272.345 462.533H201.23C197.128 462.533 193.802 465.311 193.802 468.737V478.038C193.802 481.464 197.128 484.241 201.23 484.241H272.345C276.447 484.241 279.772 481.464 279.772 478.038V468.737C279.772 465.311 276.447 462.533 272.345 462.533Z" fill="#6C63FF"/>
<path id="Vector_29" opacity="0.1" d="M362.313 484.241H291.198C287.096 484.241 283.771 487.018 283.771 490.444V499.745C283.771 503.171 287.096 505.948 291.198 505.948H362.313C366.415 505.948 369.741 503.171 369.741 499.745V490.444C369.741 487.018 366.415 484.241 362.313 484.241Z" fill="#6C63FF"/>
<path id="Vector_30" opacity="0.1" d="M452.282 505.948H381.167C377.065 505.948 373.739 508.725 373.739 512.151V521.452C373.739 524.878 377.065 527.656 381.167 527.656H452.282C456.384 527.656 459.709 524.878 459.709 521.452V512.151C459.709 508.725 456.384 505.948 452.282 505.948Z" fill="#6C63FF"/>
<path id="Vector_31" opacity="0.1" d="M552.247 495.094H481.132C477.03 495.094 473.704 497.872 473.704 501.298V510.599C473.704 514.025 477.03 516.802 481.132 516.802H552.247C556.349 516.802 559.674 514.025 559.674 510.599V501.298C559.674 497.872 556.349 495.094 552.247 495.094Z" fill="#6C63FF"/>
<path id="Vector_32" opacity="0.1" d="M642.215 516.802H571.1C566.998 516.802 563.673 519.579 563.673 523.005V532.306C563.673 535.732 566.998 538.509 571.1 538.509H642.215C646.317 538.509 649.643 535.732 649.643 532.306V523.005C649.643 519.579 646.317 516.802 642.215 516.802Z" fill="#6C63FF"/>
<path id="Vector_33" opacity="0.1" d="M732.184 538.509H661.069C656.967 538.509 653.641 541.287 653.641 544.712V554.013C653.641 557.439 656.967 560.217 661.069 560.217H732.184C736.286 560.217 739.611 557.439 739.611 554.013V544.712C739.611 541.287 736.286 538.509 732.184 538.509Z" fill="#6C63FF"/>
<path id="Vector_34" opacity="0.1" d="M552.247 462.533H481.132C477.03 462.533 473.704 465.311 473.704 468.737V478.038C473.704 481.464 477.03 484.241 481.132 484.241H552.247C556.349 484.241 559.674 481.464 559.674 478.038V468.737C559.674 465.311 556.349 462.533 552.247 462.533Z" fill="#6C63FF"/>
<path id="Vector_35" opacity="0.1" d="M642.215 484.241H571.1C566.998 484.241 563.673 487.018 563.673 490.444V499.745C563.673 503.171 566.998 505.948 571.1 505.948H642.215C646.317 505.948 649.643 503.171 649.643 499.745V490.444C649.643 487.018 646.317 484.241 642.215 484.241Z" fill="#6C63FF"/>
<path id="Vector_36" opacity="0.1" d="M732.184 505.948H661.069C656.967 505.948 653.641 508.725 653.641 512.151V521.452C653.641 524.878 656.967 527.656 661.069 527.656H732.184C736.286 527.656 739.611 524.878 739.611 521.452V512.151C739.611 508.725 736.286 505.948 732.184 505.948Z" fill="#6C63FF"/>
<path id="Vector_37" opacity="0.1" d="M272.345 419.119H201.23C197.128 419.119 193.802 421.896 193.802 425.322V434.623C193.802 438.049 197.128 440.826 201.23 440.826H272.345C276.447 440.826 279.772 438.049 279.772 434.623V425.322C279.772 421.896 276.447 419.119 272.345 419.119Z" fill="#6C63FF"/>
<path id="Vector_38" opacity="0.1" d="M362.313 440.826H291.198C287.096 440.826 283.771 443.603 283.771 447.029V456.33C283.771 459.756 287.096 462.533 291.198 462.533H362.313C366.415 462.533 369.741 459.756 369.741 456.33V447.029C369.741 443.603 366.415 440.826 362.313 440.826Z" fill="#6C63FF"/>
<path id="Vector_39" opacity="0.1" d="M452.282 462.533H381.167C377.065 462.533 373.739 465.311 373.739 468.737V478.038C373.739 481.464 377.065 484.241 381.167 484.241H452.282C456.384 484.241 459.709 481.464 459.709 478.038V468.737C459.709 465.311 456.384 462.533 452.282 462.533Z" fill="#6C63FF"/>
<path id="Vector_40" opacity="0.1" d="M272.345 386.558H201.23C197.128 386.558 193.802 389.335 193.802 392.761V402.062C193.802 405.488 197.128 408.265 201.23 408.265H272.345C276.447 408.265 279.772 405.488 279.772 402.062V392.761C279.772 389.335 276.447 386.558 272.345 386.558Z" fill="#6C63FF"/>
<path id="Vector_41" opacity="0.1" d="M362.313 408.265H291.198C287.096 408.265 283.771 411.042 283.771 414.468V423.769C283.771 427.195 287.096 429.972 291.198 429.972H362.313C366.415 429.972 369.741 427.195 369.741 423.769V414.468C369.741 411.042 366.415 408.265 362.313 408.265Z" fill="#6C63FF"/>
<path id="Vector_42" opacity="0.1" d="M452.282 429.972H381.167C377.065 429.972 373.739 432.75 373.739 436.176V445.477C373.739 448.903 377.065 451.68 381.167 451.68H452.282C456.384 451.68 459.709 448.903 459.709 445.477V436.176C459.709 432.75 456.384 429.972 452.282 429.972Z" fill="#6C63FF"/>
<path id="Vector_43" opacity="0.1" d="M552.247 419.119H481.132C477.03 419.119 473.704 421.896 473.704 425.322V434.623C473.704 438.049 477.03 440.826 481.132 440.826H552.247C556.349 440.826 559.674 438.049 559.674 434.623V425.322C559.674 421.896 556.349 419.119 552.247 419.119Z" fill="#6C63FF"/>
<path id="Vector_44" opacity="0.1" d="M642.215 440.826H571.1C566.998 440.826 563.673 443.603 563.673 447.029V456.33C563.673 459.756 566.998 462.533 571.1 462.533H642.215C646.317 462.533 649.643 459.756 649.643 456.33V447.029C649.643 443.603 646.317 440.826 642.215 440.826Z" fill="#6C63FF"/>
<path id="Vector_45" opacity="0.1" d="M732.184 462.533H661.069C656.967 462.533 653.641 465.311 653.641 468.737V478.038C653.641 481.464 656.967 484.241 661.069 484.241H732.184C736.286 484.241 739.611 481.464 739.611 478.038V468.737C739.611 465.311 736.286 462.533 732.184 462.533Z" fill="#6C63FF"/>
<path id="Vector_46" opacity="0.1" d="M552.247 386.558H481.132C477.03 386.558 473.704 389.335 473.704 392.761V402.062C473.704 405.488 477.03 408.265 481.132 408.265H552.247C556.349 408.265 559.674 405.488 559.674 402.062V392.761C559.674 389.335 556.349 386.558 552.247 386.558Z" fill="#6C63FF"/>
<path id="Vector_47" opacity="0.1" d="M642.215 408.265H571.1C566.998 408.265 563.673 411.042 563.673 414.468V423.769C563.673 427.195 566.998 429.972 571.1 429.972H642.215C646.317 429.972 649.643 427.195 649.643 423.769V414.468C649.643 411.042 646.317 408.265 642.215 408.265Z" fill="#6C63FF"/>
<path id="Vector_48" opacity="0.1" d="M732.184 429.972H661.069C656.967 429.972 653.641 432.75 653.641 436.176V445.477C653.641 448.903 656.967 451.68 661.069 451.68H732.184C736.286 451.68 739.611 448.903 739.611 445.477V436.176C739.611 432.75 736.286 429.972 732.184 429.972Z" fill="#6C63FF"/>
<path id="Vector_49" opacity="0.1" d="M482.201 632.853C724.294 632.853 920.548 619.396 920.548 602.796C920.548 586.197 724.294 572.74 482.201 572.74C240.109 572.74 43.8547 586.197 43.8547 602.796C43.8547 619.396 240.109 632.853 482.201 632.853Z" fill="#6C63FF"/>
<path id="Vector_50" d="M84.6204 155.959C125.956 170.92 149.708 201.878 149.708 201.878C149.708 201.878 106.433 208.558 65.0872 193.604C23.7417 178.651 0 147.685 0 147.685C0 147.685 43.2749 140.998 84.6204 155.959Z" fill="#0C385A"/>
<path id="Vector_51" d="M211.476 98.518C224.261 80.9851 246.034 72.6361 246.034 72.6361C246.034 72.6361 247.034 92.6236 234.288 110.106C221.542 127.589 199.72 135.93 199.72 135.93C199.72 135.93 198.68 115.951 211.476 98.518Z" fill="#0C385A"/>
<path id="Vector_52" d="M117.489 117.278C126.636 144.546 151.847 162.496 151.847 162.496C151.847 162.496 162.233 136.222 153.087 108.946C143.94 81.6697 118.719 63.7278 118.719 63.7278C118.719 63.7278 108.332 90.002 117.489 117.278Z" fill="#46455B"/>
<path id="Vector_53" d="M840.366 116.051H126.036C122.055 116.051 118.828 118.746 118.828 122.07V414.769C118.828 418.094 122.055 420.789 126.036 420.789H840.366C844.347 420.789 847.574 418.094 847.574 414.769V122.07C847.574 118.746 844.347 116.051 840.366 116.051Z" fill="#3F3D56"/>
<path id="Vector_54" opacity="0.1" d="M118.828 402.421H847.574V414.769C847.574 416.365 846.814 417.897 845.463 419.025C844.111 420.154 842.278 420.789 840.366 420.789H126.036C124.124 420.789 122.291 420.154 120.939 419.025C119.588 417.897 118.828 416.365 118.828 414.769V402.421Z" fill="black"/>
<g id="Michel">
<path id="Vector_55" d="M655.761 584.846C653.242 586.165 650.363 586.908 647.764 588.069C645.164 589.229 642.635 590.974 641.896 593.379C641.62 594.125 641.666 594.929 642.026 595.65C642.672 596.52 643.662 597.176 644.825 597.503C650.105 599.461 655.808 600.5 661.585 600.554C667.362 600.609 673.091 599.679 678.423 597.82C680.299 597.067 682.237 596.425 684.221 595.9C686.665 595.484 689.153 595.271 691.648 595.265C694.271 595.138 696.879 594.859 699.455 594.431C700.751 594.31 701.978 593.885 702.994 593.203C703.922 592.311 704.479 591.192 704.584 590.014C705.767 583.509 703.983 576.871 699.585 571.412C699.031 570.648 698.289 569.99 697.406 569.484C696.33 569.019 695.147 568.755 693.937 568.707C688.939 568.198 683.701 567.263 678.653 567.163C675.034 567.096 673.215 568.532 670.656 570.611C665.367 575.028 662.278 581.448 655.761 584.846Z" fill="#323444"/>
<path id="Vector_56" d="M729.425 584.228C729.425 588.319 730.015 592.652 732.984 595.917C734.342 597.328 735.986 598.529 737.842 599.465C744.12 602.805 752.437 604.032 759.055 601.202C760.124 600.801 761.038 600.159 761.694 599.348C762.693 597.896 762.164 596.084 761.604 594.481L752.027 566.762C745.839 567.555 736.742 568.115 731.244 570.736C727.256 572.631 729.425 580.571 729.425 584.228Z" fill="#323444"/>
<path id="Vector_57" d="M650.143 413.55C649.563 415.078 647.464 415.788 646.314 417.073C644.964 418.584 645.104 420.68 645.594 422.517C646.199 425.225 647.722 427.732 649.983 429.739C651.13 430.733 652.545 431.483 654.11 431.928C655.675 432.372 657.345 432.498 658.98 432.293C662.198 431.784 664.977 429.405 665.087 426.675C665.029 425.433 664.711 424.209 664.148 423.059L657.33 406.595C657.302 406.479 657.245 406.369 657.162 406.272C657.08 406.176 656.973 406.095 656.85 406.036C656.593 405.988 656.324 406.027 656.101 406.144C654.491 406.779 651.262 407.447 650.323 408.841C649.383 410.235 650.822 412.039 650.143 413.55Z" fill="#FBB3B2"/>
<path id="Vector_58" d="M646.954 412.724C649.443 412.398 651.622 411.179 653.951 410.377C656.281 409.576 659.2 409.267 661.159 410.603C661.719 410.987 662.258 411.513 662.988 411.505C661.996 407.422 660.495 403.437 658.51 399.616C658.44 399.432 658.304 399.272 658.12 399.156C657.847 399.064 657.543 399.064 657.27 399.156L650.543 400.626C648.053 401.168 647.764 401.002 647.954 403.047C648.003 403.957 648.563 412.724 646.954 412.724Z" fill="#323444"/>
<path id="Vector_59" d="M646.214 293.834C645.214 295.12 645.214 296.723 645.214 298.234C645.214 305.623 645.304 313.053 646.614 320.367C646.924 322.12 647.314 323.874 647.514 325.644C647.74 328.107 647.787 330.581 647.654 333.049L646.654 365.193C646.534 369.125 646.294 373.35 643.385 376.439C642.503 377.474 642.089 378.737 642.216 380.004C642.975 388.069 644.575 396.067 646.164 404.041C648.723 403.076 651.519 402.632 654.324 402.744C657.128 402.856 659.861 403.52 662.298 404.683C667.342 391.438 670.132 377.667 670.586 363.773C670.816 356.936 670.466 350.056 671.725 343.302C673.835 331.93 672.975 320.267 671.425 308.829C670.935 305.205 669.896 301.473 667.117 298.668C664.486 296.214 660.982 294.528 657.12 293.859C653.422 293.049 650.113 293.884 646.214 293.834Z" fill="#0178CB"/>
<path id="Vector_60" d="M658.43 387.05C651.725 415.745 655.386 445.457 668.946 472.41C670.118 474.406 670.939 476.531 671.385 478.722C671.935 482.813 669.676 486.745 668.386 490.703C665.387 499.703 667.117 509.288 669.036 518.497C669.836 522.337 670.659 526.175 671.505 530.01C672.335 533.75 673.135 537.816 671.055 541.206C672.845 547.434 673.904 553.604 675.694 559.832C675.883 560.325 675.941 560.847 675.864 561.36C675.503 562.175 674.868 562.886 674.034 563.406C672.701 564.535 671.742 565.935 671.253 567.468C670.764 569.001 670.761 570.613 671.245 572.147C675.814 569.409 682.182 570.369 687.4 572.147C692.618 573.925 697.756 576.322 703.394 576.322C702.574 570.795 701.785 564.992 704.224 559.807C705.643 556.802 708.142 553.963 708.072 550.749C708.002 547.868 705.893 545.297 705.383 542.45C705.194 540.679 705.275 538.894 705.623 537.14C706.963 526.921 705.443 516.601 703.924 506.399C703.752 504.387 703.185 502.413 702.244 500.555C701.535 499.352 700.475 498.2 700.495 496.856C700.495 495.295 702.005 494.026 702.564 492.54C703.564 489.801 701.725 486.078 704.494 484.383C711.791 479.908 708.992 469.221 708.832 461.665C708.706 455.147 708.372 448.635 707.833 442.129C712.427 452.918 714.306 464.384 713.351 475.808C713.031 479.549 712.441 483.481 714.19 486.937C715.53 489.592 718.189 491.78 718.909 494.594C719.358 496.33 719.039 498.125 719.139 499.895C719.239 501.665 719.958 503.594 721.788 504.487C721.928 512.535 722.787 521.143 722.937 529.192C722.84 533.306 723.242 537.418 724.137 541.465C724.586 542.752 724.834 544.082 724.877 545.422C724.651 547.102 724.118 548.744 723.297 550.29C721.555 554.598 721.099 559.197 721.971 563.686C722.842 568.175 725.013 572.418 728.295 576.046C730.655 572.548 735.573 570.694 740.371 570.402C745.169 570.11 749.908 571.12 754.556 572.139C753.845 567.261 755.008 562.32 757.875 558.029C758.644 557.062 759.234 556.004 759.624 554.89C760.164 552.769 758.905 550.657 758.225 548.561C757.115 545.222 757.505 541.623 757.765 538.133C758.637 526.445 758.017 514.713 755.916 503.135C755.591 500.854 754.95 498.612 754.006 496.455C753.647 495.687 753.207 494.953 752.907 494.176C752.435 492.783 752.166 491.348 752.107 489.901L750.957 476.543C750.148 467.184 753.826 457.942 756.396 448.808C757.545 444.717 758.795 440.634 759.564 436.476C760.614 430.816 760.784 425.03 762.323 419.444C763.703 414.435 766.192 409.551 766.712 404.416C767.512 396.46 763.553 388.77 759.714 381.473C758.115 378.468 752.067 378.768 748.178 378.234C720.598 374.452 691.548 374.427 665.537 382.951C662.847 383.882 660.425 385.279 658.43 387.05Z" fill="#3C354C"/>
<path id="Vector_61" d="M678.313 238.864L681.372 248.8C682.203 251.078 682.664 253.44 682.741 255.821C682.773 256.69 682.543 257.551 682.072 258.326C681.568 258.962 680.923 259.512 680.172 259.945C678.083 261.273 676.634 264.37 674.244 265.289C675.474 267.076 677.173 265.915 679.393 266.808C683.301 268.395 686.88 270.674 691.118 271.459C695.117 272.193 699.316 271.5 703.284 270.624C708.912 269.346 714.51 267.585 719.039 264.504C723.567 261.423 726.146 258.701 726.126 253.834C721.128 254.327 716.68 250.11 714.47 246.32C713.704 244.879 713.141 243.369 712.791 241.82L710.112 231.976C707.193 232.511 704.814 234.256 702.025 235.166C699.236 236.076 695.937 236.159 692.838 236.276C687.337 236.485 681.867 237.077 676.484 238.046C675.744 238.171 674.814 238.564 674.994 239.165" fill="#FBB3B2"/>
<path id="Vector_62" opacity="0.1" d="M678.313 238.864L681.372 248.8C682.203 251.078 682.664 253.44 682.741 255.821C682.773 256.69 682.543 257.551 682.072 258.326C681.568 258.962 680.923 259.512 680.172 259.945C678.083 261.273 676.634 264.37 674.244 265.289C675.474 267.076 677.173 265.915 679.393 266.808C683.301 268.395 686.88 270.674 691.118 271.459C695.117 272.193 699.316 271.5 703.284 270.624C708.912 269.346 714.51 267.585 719.039 264.504C723.567 261.423 726.146 258.701 726.126 253.834C721.128 254.327 716.68 250.11 714.47 246.32C713.704 244.879 713.141 243.369 712.791 241.82L710.112 231.976C707.193 232.511 704.814 234.256 702.025 235.166C699.236 236.076 695.937 236.159 692.838 236.276C687.337 236.485 681.867 237.077 676.484 238.046C675.744 238.171 674.814 238.564 674.994 239.165" fill="black"/>
<path id="Vector_63" d="M691.448 244.341C706.068 244.341 717.919 234.443 717.919 222.233C717.919 210.023 706.068 200.125 691.448 200.125C676.829 200.125 664.978 210.023 664.978 222.233C664.978 234.443 676.829 244.341 691.448 244.341Z" fill="#FBB3B2"/>
<path id="Vector_64" d="M698.736 258.676C700.151 256.123 702.195 253.847 704.734 251.997C708.462 249.267 713.561 247.055 714.44 242.98L722.518 250.837C722.957 251.201 723.297 251.639 723.517 252.123C723.619 252.576 723.604 253.041 723.473 253.489C723.342 253.937 723.098 254.356 722.757 254.719C720.758 257.382 717.609 259.286 714.63 261.215C707.802 265.732 701.265 270.547 695.047 275.642C694.773 275.907 694.406 276.094 693.997 276.176C693.611 276.185 693.231 276.094 692.908 275.917C687.543 273.564 682.795 270.34 678.943 266.433C678.653 266.14 678.293 265.806 677.823 265.832C677.54 265.875 677.279 265.988 677.073 266.157C674.384 267.994 671.445 270.19 667.997 269.906C672.465 267.226 674.994 262.751 675.934 258.217C676.12 256.666 676.502 255.135 677.073 253.65C677.37 252.908 677.88 252.237 678.56 251.699C679.24 251.16 680.069 250.769 680.972 250.561C678.793 253.341 680.282 257.282 683.211 259.528C686.057 261.545 689.469 262.927 693.128 263.544C696.527 264.078 697.526 260.864 698.736 258.676Z" fill="#323444"/>
<path id="Vector_65" d="M664.298 389.321C668.066 390.098 671.635 391.417 675.294 392.394C681.962 394.138 688.98 394.754 695.937 394.205C698.078 394.166 700.16 393.613 701.935 392.611C702.404 392.293 702.834 391.918 703.334 391.626C704.17 391.207 705.077 390.894 706.023 390.699C715.19 388.303 722.867 383.135 730.315 378.075C730.555 377.908 730.824 377.7 730.804 377.432C730.77 377.25 730.665 377.083 730.505 376.956L726.586 373.199C716.309 374.66 705.783 374.109 695.357 373.892C693.216 373.813 691.072 373.86 688.939 374.034C686.88 374.235 684.851 374.669 682.821 375.036C675.114 376.439 667.237 376.973 659.429 377.892C658.883 377.925 658.353 378.062 657.88 378.292C657.551 378.505 657.27 378.765 657.05 379.06L654.311 382.275C653.248 383.356 652.465 384.61 652.012 385.957C651.372 388.461 652.712 389.296 655.261 388.971C658.272 388.602 661.34 388.721 664.298 389.321Z" fill="#323444"/>
<path id="Vector_66" d="M694.937 271.818C691.879 269.201 688.412 266.94 684.631 265.097C683.103 264.286 681.408 263.72 679.632 263.427C678.739 263.28 677.818 263.298 676.934 263.479C676.05 263.661 675.224 264.002 674.514 264.479C673.625 265.139 673.065 266.057 672.205 266.75C671.123 267.509 669.883 268.095 668.546 268.478C663.996 270.102 659.683 272.155 655.691 274.598C653.515 275.869 651.554 277.38 649.863 279.09C645.334 283.932 644.655 290.519 644.775 296.664C644.865 300.939 649.773 304.112 653.152 307.309C656.321 310.456 659.189 313.806 661.729 317.328C663.548 319.732 665.447 322.337 665.218 325.201C665.028 327.547 663.388 329.751 663.648 332.089C663.738 332.924 664.058 333.692 664.148 334.502C664.328 336.172 663.538 337.841 663.338 339.511C663.068 341.874 663.988 344.22 664.038 346.6C664.001 348.228 663.753 349.849 663.298 351.434C661.379 359.065 658.97 366.737 659.46 374.527L653.921 375.362C654.446 375.791 654.842 376.318 655.078 376.899C655.314 377.48 655.382 378.099 655.278 378.706C655.174 379.314 654.9 379.892 654.478 380.394C654.057 380.897 653.5 381.309 652.852 381.598C661.499 384.011 670.846 382.792 680.012 382.784C687.6 382.784 695.157 383.619 702.734 383.502C710.312 383.385 718.129 382.241 724.377 378.66C726.076 377.691 727.636 376.556 729.425 375.712C731.822 374.675 734.405 373.97 737.072 373.625C742.014 372.838 747.037 372.463 752.067 372.506C754.526 372.506 757.205 372.59 759.165 371.354C761.324 369.985 761.874 367.505 762.164 365.259C762.454 362.888 762.633 360.509 762.683 358.129C762.767 356.277 762.65 354.421 762.334 352.586C762.033 351.244 761.643 349.917 761.164 348.612L757.395 337.524C755.836 332.949 758.005 327.931 758.465 323.189C758.575 322.07 758.595 320.768 757.565 320.05C757.195 319.791 756.686 319.616 756.566 319.215C756.512 319.025 756.505 318.827 756.547 318.635C756.588 318.442 756.676 318.259 756.806 318.096C758.805 314.757 761.804 311.809 764.543 308.795C769.143 303.509 773.414 298.027 777.338 292.373C776.109 280.541 770.144 269.4 760.404 260.747C758.405 258.935 756.116 257.199 753.317 256.38C751.488 255.914 749.591 255.658 747.679 255.621C739.841 255.178 731.684 254.786 724.857 251.496C724.367 251.213 723.812 251.017 723.227 250.92C721.718 250.778 720.618 252.022 719.638 253.007C717.119 255.512 713.411 256.948 710.152 258.793C704.074 262.241 699.326 266.984 694.937 271.818Z" fill="#0178CB"/>
<path id="Vector_67" d="M778.018 295.788C779.578 299.912 779.428 304.32 779.938 308.62C780.239 311.215 780.784 313.786 781.567 316.309C781.924 317.697 782.567 319.021 783.466 320.225C784.366 321.327 785.655 322.221 786.225 323.465C786.537 324.307 786.675 325.188 786.635 326.069L786.755 331.83C787.012 334.883 786.455 337.945 785.126 340.797L780.817 351.743C778.488 357.67 776.099 363.69 771.9 368.85C771.309 369.723 770.413 370.425 769.331 370.862C768.485 371.049 767.617 371.16 766.742 371.196C765.218 371.423 763.836 372.086 762.835 373.072C761.833 374.058 761.274 375.305 761.254 376.597C760.254 375.377 759.005 374.311 757.565 373.45L748.798 367.606C745.799 365.568 742.67 363.498 739.032 362.321C743.926 361.044 748.271 358.609 751.539 355.31C754.808 352.011 756.86 347.99 757.445 343.736C757.442 342.469 757.784 341.219 758.445 340.079C759.175 339.094 760.524 338.342 760.624 337.182C760.744 335.721 758.765 334.619 758.765 333.158C758.765 332.189 759.625 331.388 760.004 330.478C760.36 329.353 760.36 328.171 760.004 327.046L758.795 321.436C758.724 320.874 758.52 320.329 758.195 319.833C757.743 319.357 757.241 318.916 756.696 318.514C754.616 316.568 755.536 313.504 756.696 311.108C759.358 305.789 762.789 300.762 766.912 296.138C768.379 294.586 769.738 292.963 770.981 291.279C772.04 289.743 772.28 287.614 773.4 286.27C774.839 289.426 776.789 292.54 778.018 295.788Z" fill="#0178CB"/>
<path id="Vector_68" d="M738.722 362.663C738.276 362.94 737.89 363.278 737.582 363.665C736.404 364.9 734.835 365.834 733.054 366.362C734.053 366.963 734.963 367.555 735.903 368.165C742.855 372.649 749.222 377.734 754.896 383.335C755.526 381.457 759.294 381.59 760.214 379.795C760.431 379.281 760.499 378.732 760.414 378.192C760.223 375.38 759.741 372.586 758.975 369.843C758.672 368.431 757.988 367.095 756.975 365.936C755.576 364.525 753.397 363.849 751.317 363.264C748.168 362.346 741.921 361.052 738.722 362.663Z" fill="#323444"/>
<path id="Vector_69" d="M726.226 369.225C723.227 371.079 720.598 373.4 717.229 374.669C714.85 375.571 712.141 375.963 710.062 377.307C711.191 379.386 714.13 380.463 716.859 380.379C719.591 380.155 722.209 379.354 724.467 378.05C726.256 377.132 728.355 376.063 730.305 376.706C730.605 377.975 729.305 379.169 729.305 380.455C729.305 381.74 730.585 382.675 731.844 383.352C737.842 386.583 745.559 386.316 752.707 385.94C753.117 385.953 753.521 385.853 753.856 385.656C754.011 385.505 754.129 385.33 754.203 385.141C754.277 384.952 754.305 384.752 754.286 384.554C754.376 383.235 754.416 381.924 754.426 380.605C754.628 379.541 754.463 378.452 753.949 377.464C753.436 376.476 752.596 375.631 751.527 375.028C747.649 372.243 743.465 369.769 739.032 367.639C734.633 365.51 730.175 366.771 726.226 369.225Z" fill="#FBB3B2"/>
<path id="Vector_70" d="M700.745 212.991C696.307 213.433 693.078 216.33 693.528 219.478C693.978 222.626 697.936 224.796 702.375 224.345C706.813 223.895 710.042 221.006 709.592 217.867C709.142 214.727 705.184 212.548 700.745 212.991ZM702.255 223.477C698.496 223.853 695.147 222.008 694.757 219.353C694.367 216.698 697.116 214.243 700.865 213.867C704.614 213.492 707.973 215.337 708.362 217.992C708.752 220.647 706.003 223.101 702.255 223.477Z" fill="#3C354C"/>
<path id="Vector_71" d="M679.113 215.162C674.674 215.604 671.445 218.501 671.895 221.64C672.345 224.78 676.304 226.959 680.742 226.516C685.18 226.074 688.409 223.177 687.96 220.029C687.51 216.881 683.551 214.719 679.113 215.162ZM680.622 225.64C676.863 226.015 673.515 224.17 673.135 221.523C672.755 218.877 675.484 216.414 679.243 216.03C683.001 215.646 686.35 217.499 686.73 220.154C687.11 222.809 684.371 225.264 680.622 225.64Z" fill="#3C354C"/>
<path id="Vector_72" d="M663.048 216.773L672.695 218.493L671.745 220.613L662.648 218.384L663.048 216.773Z" fill="#3C354C"/>
<path id="Vector_73" d="M716.819 211.379L707.922 214.961L709.452 216.831L717.659 212.866L716.819 211.379Z" fill="#3C354C"/>
<path id="Vector_74" d="M687.07 217.958L693.838 217.282L693.488 218.685L687.68 219.01L687.07 217.958Z" fill="#3C354C"/>
<path id="Vector_75" d="M673.944 216.063C674.581 214.919 674.922 213.676 674.944 212.415C674.968 211.66 675.123 210.912 675.404 210.194C675.895 209.282 676.643 208.483 677.583 207.865C680.702 205.66 685.171 204.525 689.579 204.366C694.386 204.182 699.168 205.045 703.454 206.871C704.764 207.383 705.936 208.11 706.903 209.008C708.302 210.436 708.602 212.281 710.012 213.692C710.974 214.548 712.184 215.183 713.526 215.534C714.867 215.885 716.294 215.941 717.669 215.696C718.159 214.243 717.519 212.707 717.769 211.221C718.163 209.947 718.695 208.707 719.359 207.514C720.908 203.698 718.649 199.273 713.99 196.994C712.361 196.159 710.432 195.617 709.212 194.489C707.993 193.362 707.703 192.194 706.863 191.066C704.634 188.086 698.866 186.692 694.477 188.069C693.098 188.503 691.878 189.163 690.479 189.63C687.88 190.524 684.921 190.682 682.062 190.983C679.244 191.201 676.488 191.804 673.905 192.77C671.435 193.788 669.366 195.425 668.796 197.378C668.526 198.28 668.586 199.215 668.316 200.108C666.937 204.642 658.03 206.846 657.53 211.471C657.35 213.141 658.44 214.744 659.799 216.105C660.739 217.032 662.988 219.511 664.578 219.87C666.167 220.229 667.377 218.969 668.896 218.535C671.295 217.908 672.745 217.775 673.944 216.063Z" fill="#CBCEDA"/>
</g>
<path id="Vector_76" d="M786.715 510.123C786.715 552.068 818.224 586.015 857.16 586.015L786.715 510.123Z" fill="#46455B"/>
<path id="Vector_77" d="M857.16 586.023C857.16 543.602 892.328 509.279 935.783 509.279L857.16 586.023Z" fill="#0C385A"/>
<path id="Vector_78" d="M812.246 513.93C812.246 553.779 832.339 586.023 857.16 586.023L812.246 513.93Z" fill="#0C385A"/>
<path id="Vector_79" d="M857.16 586.023C857.16 531.822 897.806 487.956 948.029 487.956L857.16 586.023Z" fill="#46455B"/>
<path id="Vector_80" opacity="0.1" d="M854.111 600.517C863.784 600.517 871.625 599.411 871.625 598.046C871.625 596.681 863.784 595.574 854.111 595.574C844.439 595.574 836.598 596.681 836.598 598.046C836.598 599.411 844.439 600.517 854.111 600.517Z" fill="#6C63FF"/>
<path id="Vector_81" d="M842.345 586.558C842.345 586.558 852.342 586.299 855.341 584.512C858.34 582.725 870.706 580.58 871.455 583.452C872.205 586.324 886.45 597.737 875.184 597.812C863.918 597.887 848.973 596.343 845.974 594.815C842.975 593.287 842.345 586.558 842.345 586.558Z" fill="#A8A8A8"/>
<path id="Vector_82" opacity="0.2" d="M875.394 596.81C864.118 596.885 849.193 595.341 846.184 593.813C843.895 592.652 842.985 588.469 842.675 586.549H842.345C842.345 586.549 842.975 593.279 845.984 594.806C848.993 596.334 863.918 597.879 875.194 597.804C878.453 597.804 879.572 596.81 879.512 595.382C879.063 596.251 877.873 596.793 875.394 596.81Z" fill="black"/>
<path id="Vector_83" d="M22.4822 534.635C22.4822 568.031 47.5434 595.015 78.5226 595.015L22.4822 534.635Z" fill="#46455B"/>
<path id="Vector_84" d="M78.5225 595.015C78.5225 561.269 106.513 533.959 141.071 533.959L78.5225 595.015Z" fill="#0C385A"/>
<path id="Vector_85" d="M42.7852 537.674C42.7852 569.4 58.7796 595.032 78.5227 595.032L42.7852 537.674Z" fill="#0C385A"/>
<path id="Vector_86" d="M78.5225 595.015C78.5225 551.893 110.861 516.994 150.817 516.994L78.5225 595.015Z" fill="#46455B"/>
<path id="Vector_87" opacity="0.1" d="M76.0933 606.553C83.7895 606.553 90.0285 605.671 90.0285 604.583C90.0285 603.495 83.7895 602.613 76.0933 602.613C68.3972 602.613 62.1582 603.495 62.1582 604.583C62.1582 605.671 68.3972 606.553 76.0933 606.553Z" fill="#6C63FF"/>
<path id="Vector_88" d="M66.7366 595.441C66.7366 595.441 74.6838 595.232 77.073 593.771C79.4621 592.31 89.3087 590.64 89.8985 592.936C90.4883 595.232 101.844 604.299 92.8974 604.358C83.9505 604.416 72.0447 603.189 69.6555 601.978C67.2664 600.768 66.7366 595.441 66.7366 595.441Z" fill="#A8A8A8"/>
<path id="Vector_89" opacity="0.2" d="M93.0274 603.631C84.0305 603.69 72.1747 602.462 69.7855 601.243C67.9661 600.325 67.2464 596.994 66.9965 595.466H66.7366C66.7366 595.466 67.2364 600.818 69.6256 602.037C72.0147 603.256 83.9006 604.475 92.8674 604.416C95.4565 604.416 96.3562 603.631 96.3062 602.487C95.9464 603.155 94.9567 603.581 93.0274 603.631Z" fill="black"/>
<g id="undraw_goal_0v5v 1" clip-path="url(#clip1)">
<path id="Vector_90" d="M532.692 201.797V321.754L524.146 317.735V201.797H519.018L516.882 313.715L508.763 309.387L514.318 200.251" stroke="#E0E0E0" stroke-miterlimit="10"/>
<path id="Vector_91" d="M543.378 210.454L508.767 211.845" stroke="#E0E0E0" stroke-miterlimit="10"/>
<path id="Vector_92" d="M541.242 216.638L508.767 217.565" stroke="#E0E0E0" stroke-miterlimit="10"/>
<path id="Vector_93" d="M541.242 224.058L508.767 224.676" stroke="#E0E0E0" stroke-miterlimit="10"/>
<path id="Vector_94" d="M541.242 230.86L508.767 231.787" stroke="#E0E0E0" stroke-miterlimit="10"/>
<path id="Vector_95" d="M541.242 238.589H507.485" stroke="#E0E0E0" stroke-miterlimit="10"/>
<path id="Vector_96" d="M541.242 246.318L506.631 245.391" stroke="#E0E0E0" stroke-miterlimit="10"/>
<path id="Vector_97" d="M541.242 253.429L506.631 252.193" stroke="#E0E0E0" stroke-miterlimit="10"/>
<path id="Vector_98" d="M541.242 261.159L506.631 259.304" stroke="#E0E0E0" stroke-miterlimit="10"/>
<path id="Vector_99" d="M542.096 267.961L505.349 265.487" stroke="#E0E0E0" stroke-miterlimit="10"/>
<path id="Vector_100" d="M542.096 275.69L505.349 271.671" stroke="#E0E0E0" stroke-miterlimit="10"/>
<path id="Vector_101" d="M542.096 284.656L504.067 279.709" stroke="#E0E0E0" stroke-miterlimit="10"/>
<path id="Vector_102" d="M542.096 294.859L504.067 286.82" stroke="#E0E0E0" stroke-miterlimit="10"/>
<path id="Vector_103" d="M542.951 305.371L502.785 293.931" stroke="#E0E0E0" stroke-miterlimit="10"/>
<path id="Vector_104" d="M542.951 314.955L502.785 300.733" stroke="#E0E0E0" stroke-miterlimit="10"/>
<path id="Vector_105" d="M499.362 201.488L492.526 306.914H483.552L489.107 201.488H479.279L472.87 306.914H463.042L468.597 201.488H456.633L452.36 306.914H441.677L446.377 202.416H435.268L432.704 306.914H422.876L425.867 201.488H416.039L413.903 306.914H404.502L406.639 201.488H395.529V306.914H384.419V201.488H374.164L375.873 306.914H366.9L364.336 201.488H354.081L357.499 306.914H348.526L344.253 201.488H335.28L338.698 306.914H330.58L324.17 201.488H315.624L322.461 306.914H313.915L304.514 201.488H294.259L306.224 306.914H298.105L286.568 201.488H278.449L290.414 306.914H281.44L269.903 200.251H261.785L275.031 306.914H266.485L252.811 200.251" stroke="#E0E0E0" stroke-miterlimit="10"/>
<path id="Vector_106" d="M233.583 201.797L246.402 308.769L239.992 312.479L230.164 201.797H223.328L230.164 316.498L220.337 321.136L216.495 200.251" stroke="#E0E0E0" stroke-miterlimit="10"/>
<path id="Vector_107" d="M207.095 213.855H246.406" stroke="#E0E0E0" stroke-miterlimit="10"/>
<path id="Vector_108" d="M207.095 221.584H246.406" stroke="#E0E0E0" stroke-miterlimit="10"/>
<path id="Vector_109" d="M207.095 230.241L246.406 229.314" stroke="#E0E0E0" stroke-miterlimit="10"/>
<path id="Vector_110" d="M207.095 237.662L248.115 236.116" stroke="#E0E0E0" stroke-miterlimit="10"/>
<path id="Vector_111" d="M207.095 246.009L248.115 244.773" stroke="#E0E0E0" stroke-miterlimit="10"/>
<path id="Vector_112" d="M207.095 254.975L249.825 253.429" stroke="#E0E0E0" stroke-miterlimit="10"/>
<path id="Vector_113" d="M207.095 263.632L249.825 260.54" stroke="#E0E0E0" stroke-miterlimit="10"/>
<path id="Vector_114" d="M207.095 273.526L249.825 266.106" stroke="#E0E0E0" stroke-miterlimit="10"/>
<path id="Vector_115" d="M207.095 282.183L251.534 271.362" stroke="#E0E0E0" stroke-miterlimit="10"/>
<path id="Vector_116" d="M207.095 291.149L251.534 278.782" stroke="#E0E0E0" stroke-miterlimit="10"/>
<path id="Vector_117" d="M205.813 299.806L250.051 286.372" stroke="#E0E0E0" stroke-miterlimit="10"/>
<path id="Vector_118" d="M205.813 309.699L251.534 293.004" stroke="#E0E0E0" stroke-miterlimit="10"/>
<path id="Vector_119" d="M205.813 318.665L252.816 299.806" stroke="#E0E0E0" stroke-miterlimit="10"/>
<path id="Vector_120" d="M508.767 210.454L246.406 212" stroke="#E0E0E0" stroke-miterlimit="10"/>
<path id="Vector_121" d="M508.554 216.019L246.193 217.565" stroke="#E0E0E0" stroke-miterlimit="10"/>
<path id="Vector_122" d="M508.34 221.584L245.979 223.13" stroke="#E0E0E0" stroke-miterlimit="10"/>
<path id="Vector_123" d="M508.126 227.15L245.765 228.695" stroke="#E0E0E0" stroke-miterlimit="10"/>
<path id="Vector_124" d="M507.913 232.715L245.552 234.261" stroke="#E0E0E0" stroke-miterlimit="10"/>
<path id="Vector_125" d="M507.699 238.28L248.756 239.826" stroke="#E0E0E0" stroke-miterlimit="10"/>
<path id="Vector_126" d="M507.485 243.845L248.543 245.391" stroke="#E0E0E0" stroke-miterlimit="10"/>
<path id="Vector_127" d="M507.272 249.41L248.329 250.956" stroke="#E0E0E0" stroke-miterlimit="10"/>
<path id="Vector_128" d="M507.058 254.975L248.115 256.521" stroke="#E0E0E0" stroke-miterlimit="10"/>
<path id="Vector_129" d="M506.844 260.54L250.465 262.086" stroke="#E0E0E0" stroke-miterlimit="10"/>
<path id="Vector_130" d="M506.631 266.106L250.252 267.652" stroke="#E0E0E0" stroke-miterlimit="10"/>
<path id="Vector_131" d="M506.417 271.671L250.038 273.217" stroke="#E0E0E0" stroke-miterlimit="10"/>
<path id="Vector_132" d="M506.203 277.236L251.534 278.782" stroke="#E0E0E0" stroke-miterlimit="10"/>
<path id="Vector_133" d="M505.99 282.801L251.32 284.347" stroke="#E0E0E0" stroke-miterlimit="10"/>
<path id="Vector_134" d="M505.776 288.366L252.388 289.912" stroke="#E0E0E0" stroke-miterlimit="10"/>
<path id="Vector_135" d="M505.563 293.931L252.175 295.477" stroke="#E0E0E0" stroke-miterlimit="10"/>
<path id="Vector_136" d="M505.349 299.497L251.961 301.042" stroke="#E0E0E0" stroke-miterlimit="10"/>
<path id="Vector_137" d="M542.947 327.01L504.063 306.914H251.529L207.095 327.01" stroke="#E0E0E0" stroke-width="3" stroke-miterlimit="10"/>
<path id="Vector_138" d="M590.911 255.473C589.83 257.829 580.805 263.246 580.805 263.246C580.805 263.246 578.041 254.997 579.122 252.641C579.657 251.525 580.778 250.606 582.243 250.083C583.707 249.561 585.397 249.476 586.946 249.848C588.496 250.22 589.782 251.018 590.524 252.07C591.267 253.122 591.408 254.344 590.915 255.47L590.911 255.473Z" fill="#6C63FF"/>
<path id="Vector_139" d="M594.676 270.864C592.001 272.41 580.353 273.415 580.353 273.415C580.353 273.415 584.228 265.404 586.903 263.852C587.537 263.467 588.271 263.179 589.061 263.002C589.851 262.826 590.682 262.765 591.505 262.824C592.328 262.883 593.127 263.06 593.854 263.346C594.581 263.631 595.222 264.018 595.74 264.485C596.257 264.952 596.641 265.489 596.868 266.064C597.095 266.64 597.16 267.242 597.061 267.836C596.962 268.43 596.7 269.004 596.29 269.524C595.881 270.044 595.332 270.5 594.676 270.864Z" fill="#6C63FF"/>
<path id="Vector_140" d="M584.027 293.066C580.635 293.427 569.884 290.036 569.884 290.036C569.884 290.036 578.819 284.536 582.211 284.161C583.822 284.017 585.447 284.333 586.739 285.044C588.031 285.755 588.887 286.804 589.124 287.965C589.362 289.127 588.961 290.31 588.009 291.261C587.056 292.212 585.627 292.855 584.027 293.053V293.066Z" fill="#6C63FF"/>
<path id="Vector_141" d="M200.895 211.329C201.104 205.347 206.83 200.091 214.91 198.807L215.141 198.773C215.467 198.726 215.799 198.704 216.132 198.705H535.922C538.284 198.692 540.61 199.121 542.675 199.951C544.739 200.781 546.471 201.984 547.703 203.442L547.784 203.544C548.254 204.141 548.507 204.814 548.519 205.501L551.488 327.007H541.233L537.815 208.284C537.815 208.284 537.815 204.883 533.542 204.574C532.888 204.527 524.957 204.493 512.002 204.472L504.49 307.223H500.217L508.571 204.468C451.612 204.388 312.197 204.49 247.491 204.546L255.79 306.604H251.517L244.064 204.549L219.435 204.571C217.629 204.571 215.855 204.914 214.289 205.565C212.723 206.216 211.42 207.152 210.509 208.281L207.09 327.004H196.835L200.895 211.329Z" fill="#E0E0E0"/>
<path id="Vector_142" d="M196.78 329.511C196.78 329.511 195.395 313.168 206.364 303.126C211.002 298.936 213.637 293.769 213.872 288.403C213.955 285.853 213.714 283.303 213.154 280.785" stroke="#535461" stroke-width="2" stroke-miterlimit="10"/>
<path id="Vector_143" d="M220.016 274.435C219.422 276.312 213.004 280.974 213.004 280.974C213.004 280.974 210.013 274.753 210.624 272.88C210.764 272.433 211.025 272.011 211.391 271.637C211.756 271.263 212.22 270.945 212.756 270.701C213.292 270.457 213.889 270.292 214.513 270.215C215.137 270.138 215.775 270.15 216.393 270.252C217.01 270.353 217.593 270.542 218.11 270.806C218.627 271.071 219.066 271.407 219.403 271.794C219.741 272.182 219.969 272.614 220.076 273.065C220.182 273.517 220.165 273.979 220.025 274.426L220.016 274.435Z" fill="#6C63FF"/>
<path id="Vector_144" d="M224.486 286.115C222.576 287.457 213.688 288.849 213.688 288.849C213.688 288.849 215.863 282.458 217.773 281.119C218.226 280.8 218.762 280.549 219.35 280.38C219.938 280.211 220.566 280.127 221.199 280.134C221.831 280.141 222.456 280.237 223.036 280.419C223.617 280.6 224.143 280.862 224.584 281.19C225.025 281.519 225.372 281.906 225.605 282.332C225.839 282.757 225.954 283.212 225.945 283.669C225.936 284.127 225.803 284.579 225.552 284.999C225.302 285.419 224.939 285.8 224.486 286.119V286.115Z" fill="#6C63FF"/>
<path id="Vector_145" d="M218.525 303.819C215.961 304.279 207.3 302.233 207.3 302.233C207.3 302.233 213.628 297.512 216.217 297.051C217.458 296.83 218.769 296.974 219.862 297.452C220.956 297.93 221.742 298.703 222.048 299.6C222.354 300.498 222.155 301.446 221.494 302.237C220.833 303.029 219.765 303.597 218.525 303.819Z" fill="#6C63FF"/>
<path id="Vector_146" d="M209.842 316.48C207.402 317.249 198.408 316.288 198.408 316.288C198.408 316.288 203.535 310.859 205.988 310.104C206.57 309.91 207.2 309.803 207.84 309.787C208.48 309.771 209.119 309.848 209.717 310.014C210.316 310.179 210.863 310.429 211.327 310.749C211.79 311.069 212.161 311.453 212.417 311.878C212.673 312.303 212.809 312.761 212.817 313.224C212.825 313.688 212.706 314.148 212.465 314.578C212.225 315.007 211.868 315.398 211.416 315.727C210.964 316.055 210.426 316.316 209.834 316.492L209.842 316.48Z" fill="#6C63FF"/>
<path id="Vector_147" d="M203.715 287.587C205.159 289.204 213.397 291.993 213.397 291.993C213.397 291.993 213.248 285.414 211.799 283.797C211.105 283.021 210.013 282.477 208.763 282.284C207.514 282.091 206.21 282.264 205.138 282.767C204.066 283.27 203.314 284.06 203.047 284.964C202.78 285.868 203.02 286.811 203.715 287.587Z" fill="#6C63FF"/>
<path id="Vector_148" d="M193.823 302.474C195.87 303.711 204.886 304.582 204.886 304.582C204.886 304.582 202.023 298.337 199.972 297.107C199.485 296.814 198.923 296.595 198.318 296.46C197.714 296.325 197.079 296.277 196.449 296.32C195.819 296.362 195.207 296.494 194.647 296.708C194.088 296.922 193.592 297.213 193.188 297.566C192.785 297.918 192.481 298.325 192.294 298.762C192.108 299.199 192.042 299.659 192.101 300.115C192.16 300.571 192.342 301.014 192.638 301.418C192.933 301.823 193.336 302.182 193.823 302.474Z" fill="#6C63FF"/>
<path id="Vector_149" d="M186.956 317.911C188.687 319.373 197.365 321.343 197.365 321.343C197.365 321.343 196.002 314.85 194.267 313.375C193.435 312.673 192.252 312.239 190.978 312.169C189.704 312.098 188.443 312.396 187.473 312.998C186.503 313.6 185.903 314.456 185.805 315.378C185.708 316.3 186.12 317.212 186.952 317.914L186.956 317.911Z" fill="#6C63FF"/>
<path id="Vector_150" opacity="0.5" d="M220.016 274.435C219.422 276.312 213.004 280.974 213.004 280.974C213.004 280.974 210.013 274.753 210.624 272.88C210.764 272.433 211.025 272.011 211.391 271.637C211.756 271.263 212.22 270.945 212.756 270.701C213.292 270.457 213.889 270.292 214.513 270.215C215.137 270.138 215.775 270.15 216.393 270.252C217.01 270.353 217.593 270.542 218.11 270.806C218.627 271.071 219.066 271.407 219.403 271.794C219.741 272.182 219.969 272.614 220.076 273.065C220.182 273.517 220.165 273.979 220.025 274.426L220.016 274.435Z" fill="#1EFF1E"/>
<path id="Vector_151" opacity="0.5" d="M224.486 286.115C222.576 287.457 213.688 288.849 213.688 288.849C213.688 288.849 215.863 282.458 217.773 281.119C218.226 280.8 218.762 280.549 219.35 280.38C219.938 280.211 220.566 280.127 221.199 280.134C221.831 280.141 222.456 280.237 223.036 280.419C223.617 280.6 224.143 280.862 224.584 281.19C225.025 281.519 225.372 281.906 225.605 282.332C225.839 282.757 225.954 283.212 225.945 283.669C225.936 284.127 225.803 284.579 225.552 284.999C225.302 285.419 224.939 285.8 224.486 286.119V286.115Z" fill="#1EFF1E"/>
<path id="Vector_152" opacity="0.5" d="M218.525 303.819C215.961 304.279 207.3 302.233 207.3 302.233C207.3 302.233 213.628 297.512 216.217 297.051C217.458 296.83 218.769 296.974 219.862 297.452C220.956 297.93 221.742 298.703 222.048 299.6C222.354 300.498 222.155 301.446 221.494 302.237C220.833 303.029 219.765 303.597 218.525 303.819Z" fill="#1EFF1E"/>
<path id="Vector_153" opacity="0.5" d="M209.842 316.48C207.402 317.249 198.408 316.288 198.408 316.288C198.408 316.288 203.535 310.859 205.988 310.104C206.57 309.91 207.2 309.803 207.84 309.787C208.48 309.771 209.119 309.848 209.717 310.014C210.316 310.179 210.863 310.429 211.327 310.749C211.79 311.069 212.161 311.453 212.417 311.878C212.673 312.303 212.809 312.761 212.817 313.224C212.825 313.688 212.706 314.148 212.465 314.578C212.225 315.007 211.868 315.398 211.416 315.727C210.964 316.055 210.426 316.316 209.834 316.492L209.842 316.48Z" fill="#1EFF1E"/>
<path id="Vector_154" opacity="0.5" d="M203.715 287.587C205.159 289.204 213.397 291.993 213.397 291.993C213.397 291.993 213.248 285.414 211.799 283.797C211.105 283.021 210.013 282.477 208.763 282.284C207.514 282.091 206.21 282.264 205.138 282.767C204.066 283.27 203.314 284.06 203.047 284.964C202.78 285.868 203.02 286.811 203.715 287.587Z" fill="#1EFF1E"/>
<path id="Vector_155" opacity="0.5" d="M193.823 302.474C195.87 303.711 204.886 304.582 204.886 304.582C204.886 304.582 202.023 298.337 199.972 297.107C199.485 296.814 198.923 296.595 198.318 296.46C197.714 296.325 197.079 296.277 196.449 296.32C195.819 296.362 195.207 296.494 194.647 296.708C194.088 296.922 193.592 297.213 193.188 297.566C192.785 297.918 192.481 298.325 192.294 298.762C192.108 299.199 192.042 299.659 192.101 300.115C192.16 300.571 192.342 301.014 192.638 301.418C192.933 301.823 193.336 302.182 193.823 302.474Z" fill="#1EFF1E"/>
<path id="Vector_156" opacity="0.5" d="M186.956 317.911C188.687 319.373 197.365 321.343 197.365 321.343C197.365 321.343 196.002 314.85 194.267 313.375C193.435 312.673 192.252 312.239 190.978 312.169C189.704 312.098 188.443 312.396 187.473 312.998C186.503 313.6 185.903 314.456 185.805 315.378C185.708 316.3 186.12 317.212 186.952 317.914L186.956 317.911Z" fill="#1EFF1E"/>
<g id="Group" opacity="0.1">
<path id="Vector_157" opacity="0.1" d="M271.314 266.672C271.262 266.625 271.236 266.594 271.236 266.594L271.314 266.672Z" fill="url(#paint0_linear)"/>
</g>
<path id="Vector_158" d="M341.963 270.892C341.882 272.861 343.569 273.6 343.569 273.6L359.337 283.704C365.421 285.299 366.173 293.669 366.173 293.669C366.772 294.442 367.028 295.783 367.028 297.379C366.955 302.325 365.024 309.22 365.024 309.22L365.08 309.285L365.024 309.486L365.08 309.551L365.024 309.752C365.326 310.105 365.653 310.446 366.003 310.775C364.293 313.307 361.11 317.382 359.734 318.251C357.833 319.448 354.03 328.349 354.03 328.349L354.154 328.327L354.03 328.615H354.111C353.188 329.904 352.248 331.567 352.047 333.209C351.911 334.285 351.603 335.347 351.128 336.372C350.568 337.563 350.518 338.849 350.987 340.06C351.364 341.029 351.613 342.022 351.731 343.025C351.969 344.958 352.625 346.851 353.675 348.637C355.414 351.627 357.717 355.711 357.837 356.533C357.901 356.978 358.051 357.634 358.221 358.311L358.123 358.329L354.034 365.039C354.034 365.039 352.893 366.894 350.616 366.894C350.394 366.893 350.174 366.926 349.971 366.991C349.768 367.056 349.586 367.151 349.438 367.27C349.29 367.39 349.178 367.531 349.111 367.684C349.044 367.837 349.022 367.999 349.047 368.158C349.017 368.345 349.051 368.534 349.146 368.708V368.727C349.146 368.758 349.184 368.789 349.201 368.82L349.24 368.872C349.261 368.903 349.287 368.931 349.317 368.962L349.368 369.015L349.462 369.098L349.526 369.151L349.637 369.231L349.714 369.284L349.842 369.358L349.936 369.407L350.086 369.475L350.197 369.525L350.363 369.587L350.492 369.633L350.675 369.689L350.821 369.732L351.026 369.781L351.188 369.818L351.419 369.859L351.603 369.89L351.855 369.92L352.056 369.945L352.333 369.967L352.551 369.985H352.859H353.09H353.675H354.081H354.307C354.527 369.985 354.753 369.972 354.987 369.945C362.405 369.413 367.917 365.308 367.917 365.308V365.23V365.153V365.076L367.943 365.054C367.943 365.054 367.464 359.708 364.751 358.5C364.48 357.506 364.337 356.497 364.323 355.485C364.323 351.775 365.844 348.043 361.661 341.931C361.661 341.931 361.469 340.335 362.994 337.946C363.889 336.665 364.879 335.42 365.96 334.217L366.148 334.201L365.844 334.492C365.844 334.492 370.788 334.226 371.169 331.833C371.205 331.634 371.269 331.438 371.361 331.249C372.506 328.843 378.035 325.433 380.488 325.189C383.15 324.923 388.474 329.44 390.568 332.631C390.688 332.813 390.812 332.986 390.935 333.144C392.978 335.744 395.512 335.157 395.512 335.157C395.422 335.079 395.345 335.005 395.264 334.928C395.348 334.92 395.431 334.908 395.512 334.891C395.288 334.694 395.081 334.488 394.892 334.273C396.794 335.763 398.815 337.136 399.695 337.936C401.597 339.665 400.648 340.858 400.648 341.39C400.648 343.786 396.272 350.823 397.413 354.684C397.977 356.592 397.332 358.824 396.533 360.593H396.366C393.132 361.477 392.756 364.649 392.781 366.244C392.781 366.294 392.781 366.343 392.781 366.39C392.781 366.47 392.781 366.547 392.781 366.622V366.671C392.781 366.731 392.781 366.788 392.781 366.844V366.884C392.781 366.946 392.781 367.005 392.781 367.057C392.781 367.113 392.781 367.166 392.781 367.209V367.228V367.32V367.345V367.394V367.428C392.781 367.428 401.908 370.35 409.707 371.139C409.98 371.166 410.241 371.188 410.493 371.204H410.724L411.215 371.225H411.882H412.095C412.245 371.225 412.386 371.225 412.523 371.2H412.659C412.836 371.184 413.003 371.163 413.159 371.139L413.262 371.12C413.381 371.098 413.493 371.08 413.599 371.055L413.74 371.021L413.992 370.95L414.121 370.907C414.198 370.879 414.27 370.851 414.343 370.82L414.458 370.755C414.545 370.715 414.627 370.67 414.706 370.622C414.784 370.574 414.857 370.521 414.924 370.465L414.979 370.415C415.022 370.378 415.062 370.338 415.099 370.298L415.15 370.236C415.182 370.197 415.209 370.157 415.232 370.118L415.27 370.056C415.293 370.012 415.313 369.967 415.33 369.92V369.874C415.348 369.814 415.361 369.753 415.368 369.692C415.368 369.692 415.368 369.67 415.368 369.658C415.372 369.608 415.372 369.559 415.368 369.509C415.368 369.491 415.368 369.469 415.368 369.451C415.479 368.634 414.586 367.821 413.693 367.945C411.792 368.211 409.318 366.615 409.318 366.615L404.118 360.469C404.036 359.031 404.259 357.204 405.515 355.72C407.989 352.798 411.031 346.553 411.031 346.553C411.031 346.553 410.651 342.701 412.172 340.839C413.693 338.978 412.172 336.057 412.172 336.057L407.519 329.564C408.053 329.564 408.373 329.564 408.373 329.564L408.207 329.298H408.373C408.373 329.298 402.669 320.131 400.387 319.067C398.759 318.31 396.46 314.043 395.26 311.647C395.738 311.465 396.003 311.338 396.003 311.338C396.003 311.338 397.336 299.778 397.336 292.478C397.336 285.179 404.173 282.248 404.173 282.248L420.013 275.464C424.196 274.268 424.769 271.213 424.769 271.213L424.722 271.127C424.756 271.012 424.769 270.947 424.769 270.947L424.722 270.861C424.756 270.746 424.769 270.681 424.769 270.681L417.163 256.598C417.163 256.642 417.116 256.679 417.095 256.719C416.556 254.292 414.894 250.492 409.745 250.226C402.139 249.828 399.49 252.619 400.998 252.885C402.507 253.151 408.985 255.012 408.985 255.012L411.548 258.002C411.382 257.962 411.288 257.934 411.288 257.934C411.433 257.975 411.561 258.042 411.659 258.129L411.83 258.327C411.497 258.259 411.292 258.2 411.292 258.2C411.339 258.214 411.383 258.232 411.424 258.253C411.462 258.267 411.497 258.284 411.531 258.302C411.566 258.324 411.599 258.348 411.629 258.373C411.664 258.398 411.697 258.424 411.728 258.45C411.762 258.481 411.792 258.515 411.826 258.549L411.877 258.605C411.681 258.567 411.487 258.521 411.296 258.469C413.287 258.933 414.121 267.673 414.287 269.908L404.438 273.084C404.438 273.084 394.55 273.084 390.367 274.812C386.697 276.327 384.928 275.081 384.552 274.753C384.808 274.99 385.034 275.219 385.231 275.44L385.124 275.387L385.026 275.338L384.945 275.291L384.855 275.236L384.825 275.217C383.961 274.046 383.391 272.773 383.142 271.457C383.608 270.652 383.837 269.785 383.814 268.912C383.79 268.039 383.515 267.179 383.005 266.387C383.165 266.469 383.341 266.534 383.526 266.582C383.099 266.003 382.81 265.376 382.671 264.727C382.577 264 382.864 263.227 382.436 262.562C382.391 262.495 382.34 262.43 382.283 262.368C382.283 262.346 382.283 262.321 382.248 262.297C381.821 261.623 380.774 261.252 380.112 260.664C379.685 260.268 379.441 259.786 379.031 259.378C378.511 258.897 377.792 258.55 376.979 258.386C376.166 258.222 375.303 258.251 374.514 258.469C373.891 258.651 373.309 258.957 372.634 258.967C372.285 258.954 371.939 258.911 371.604 258.837C369.511 258.522 367.331 258.818 365.537 259.659C363.788 260.495 362.406 261.675 361.554 263.06C361.094 263.741 360.793 264.472 360.666 265.224C360.616 266.013 360.633 266.803 360.717 267.59C360.755 268.885 360.49 270.245 361.255 271.423C361.302 271.498 361.362 271.563 361.413 271.634C361.413 271.652 361.413 271.671 361.443 271.689C362.17 272.812 363.691 273.544 365.148 274.252L367.032 275.152L367.246 275.254C366.707 275.215 366.164 275.207 365.622 275.229C362.768 275.362 357.076 273.374 357.076 273.374L351.137 269.485L354.034 260.884L353.923 260.942L354.034 260.618L353.923 260.677L354.034 260.352C353.978 260.383 353.927 260.411 353.872 260.438L356.884 256.895C356.884 256.895 363.349 255.04 364.87 254.768C366.391 254.496 363.729 251.714 356.123 252.109C350.526 252.403 349.047 256.867 348.659 259.22C348.33 258.957 348.137 258.766 348.137 258.766L342.805 267.893C342.248 268.75 341.956 269.685 341.95 270.632C341.958 270.722 341.959 270.811 341.963 270.892ZM385.06 275.529L385.214 275.696L385.06 275.529ZM369.818 275.566C370.242 275.464 370.621 275.283 370.916 275.041C371.394 275.172 371.886 275.276 372.386 275.35C372.251 275.688 372.06 276.013 371.818 276.318C371.745 276.111 371.711 275.984 371.711 275.984C371.091 275.819 370.46 275.678 369.818 275.563V275.566ZM366.601 333.413C367.028 332.915 367.455 332.43 367.883 331.972C367.515 332.461 367.028 332.993 366.601 333.413Z" fill="url(#paint1_linear)"/>
<path id="Vector_159" d="M405.434 327.882L410.882 335.766C410.882 335.766 412.335 338.657 410.882 340.496C409.429 342.336 409.792 346.148 409.792 346.148C409.792 346.148 406.886 352.331 404.524 355.216C402.161 358.101 403.613 362.327 403.613 362.327L394.17 363.115C394.17 363.115 397.802 357.989 396.734 354.177C395.666 350.365 399.823 343.406 399.823 341.034C399.823 340.509 400.733 339.324 398.913 337.618C397.093 335.911 390.196 331.573 390.367 329.075L405.434 327.882Z" fill="#F7BBC3"/>
<path id="Vector_160" d="M357.303 326.042C357.303 326.042 353.816 329.536 353.41 332.937C353.288 333.999 353.001 335.047 352.555 336.063C352.019 337.243 351.971 338.511 352.419 339.711C352.778 340.671 353.016 341.653 353.128 342.645C353.352 344.557 353.977 346.434 354.983 348.21C356.645 351.169 358.828 355.207 358.956 356.02C359.14 357.334 360.046 360.488 360.046 360.488L367.31 362.46C367.31 362.46 365.131 358.648 365.131 354.969C365.131 351.29 366.584 347.61 362.567 341.563C362.567 341.563 362.383 339.986 363.849 337.621C365.315 335.256 370.934 329.078 370.934 329.078L357.303 326.042Z" fill="#F7BBC3"/>
<path id="Vector_161" opacity="0.1" d="M369.045 330.729C369.643 331.199 366.563 334.192 366.563 334.192C366.563 334.192 371.284 333.929 371.647 331.564C371.682 331.368 371.743 331.174 371.831 330.986C372.925 328.608 378.206 325.235 380.548 324.994C383.112 324.731 388.175 329.199 390.175 332.353C390.29 332.535 390.406 332.702 390.525 332.86C392.478 335.432 394.897 334.851 394.897 334.851C393.615 333.707 393.35 332.801 393.752 332.068C395.341 329.233 407.246 329.316 407.246 329.316C407.246 329.316 401.798 320.248 399.618 319.197C397.439 318.146 393.987 310.259 393.987 310.259C393.987 310.259 368.011 308.157 367.832 309.075C367.652 309.993 362.563 317.225 360.747 318.406C358.931 319.587 355.303 328.398 355.303 328.398C361.478 327.084 368.289 330.303 369.015 330.699L369.045 330.729Z" fill="black"/>
<path id="Vector_162" d="M369.045 330.467C369.643 330.937 366.562 333.929 366.562 333.929C366.562 333.929 371.284 333.667 371.647 331.301C371.682 331.105 371.743 330.911 371.831 330.723C372.925 328.346 378.206 324.973 380.548 324.731C383.112 324.469 388.175 328.936 390.175 332.09C390.29 332.272 390.406 332.439 390.525 332.597C392.478 335.169 394.897 334.588 394.897 334.588C393.615 333.444 393.35 332.538 393.751 331.805C395.341 328.97 407.245 329.054 407.245 329.054C407.245 329.054 401.797 319.986 399.618 318.934C397.439 317.883 393.986 309.996 393.986 309.996C393.986 309.996 368.011 307.894 367.831 308.812C367.652 309.73 362.563 316.962 360.747 318.143C358.931 319.324 355.299 328.132 355.299 328.132C361.473 326.818 368.284 330.037 369.011 330.433L369.045 330.467Z" fill="#2F2E41"/>
<path id="Vector_163" opacity="0.1" d="M403.165 359.885L408.16 365.997C408.16 365.997 410.523 367.574 412.339 367.311C414.155 367.048 415.971 370.99 408.523 370.202C401.075 369.413 392.358 366.523 392.358 366.523C392.358 366.523 391.542 361.199 395.717 360.03L403.165 359.885Z" fill="black"/>
<path id="Vector_164" opacity="0.1" d="M359.209 357.77L355.303 364.408C355.303 364.408 354.213 366.263 352.034 366.263C349.855 366.263 349.129 369.549 356.213 369.024C363.298 368.498 368.566 364.423 368.566 364.423C368.566 364.423 368.019 358.116 364.751 357.72C362.917 357.468 361.033 357.485 359.209 357.77Z" fill="black"/>
<path id="Vector_165" d="M403.165 360.147L408.16 366.26C408.16 366.26 410.523 367.837 412.339 367.574C414.155 367.311 415.971 371.253 408.523 370.465C401.075 369.676 392.358 366.785 392.358 366.785C392.358 366.785 391.542 361.461 395.717 360.293L403.165 360.147Z" fill="#2F2E41"/>
<path id="Vector_166" d="M359.209 358.045L355.303 364.683C355.303 364.683 354.213 366.538 352.034 366.538C349.855 366.538 349.129 369.825 356.213 369.299C363.298 368.773 368.566 364.698 368.566 364.698C368.566 364.698 368.019 358.391 364.751 357.996C362.917 357.743 361.033 357.76 359.209 358.045Z" fill="#2F2E41"/>
<g id="Group_2" opacity="0.1">
<path id="Vector_167" opacity="0.1" d="M368.737 308.827C368.554 309.755 363.469 316.977 361.653 318.158C359.986 319.244 356.786 326.76 356.273 327.978C355.944 328.024 355.619 328.077 355.295 328.145C355.295 328.145 358.927 319.339 360.743 318.155C362.559 316.971 367.644 309.743 367.827 308.824C367.861 308.642 368.925 308.577 370.596 308.596C369.468 308.611 368.772 308.679 368.737 308.827Z" fill="black"/>
<path id="Vector_168" opacity="0.1" d="M381.458 324.728C384.022 324.466 389.085 328.933 391.085 332.087C391.201 332.269 391.316 332.436 391.436 332.594C392.564 334.078 393.841 334.511 394.726 334.613C394.14 334.69 392.162 334.755 390.525 332.594C390.406 332.436 390.29 332.269 390.175 332.087C388.342 329.193 383.915 325.198 381.232 324.759L381.458 324.728Z" fill="black"/>
<path id="Vector_169" opacity="0.1" d="M369.045 330.467L369.015 330.445C368.43 330.136 363.887 327.972 358.909 327.839C364.229 327.706 369.301 330.108 369.925 330.445L369.955 330.467C370.481 330.881 368.165 333.249 367.596 333.806C367.257 333.862 366.913 333.902 366.567 333.926C366.567 333.926 369.643 330.937 369.045 330.467Z" fill="black"/>
</g>
<path id="Vector_170" d="M415.787 259.279C415.787 259.279 415.787 251.262 408.523 250.866C401.259 250.471 398.695 253.232 400.169 253.494C401.643 253.757 407.797 255.597 407.797 255.597L411.792 260.46L415.787 259.279Z" fill="#F7BBC3"/>
<path id="Vector_171" d="M350.034 261.119C350.034 261.119 350.034 253.102 357.298 252.706C364.563 252.31 367.126 255.071 365.652 255.334C364.178 255.597 358.025 257.436 358.025 257.436L354.03 262.3L350.034 261.119Z" fill="#F7BBC3"/>
<path id="Vector_172" d="M382.911 269.398C382.911 269.398 382.364 274.654 386.906 277.678C391.448 280.702 376.373 284.511 376.373 284.511L369.652 278.729C369.652 278.729 375.1 276.364 372.216 272.289L382.911 269.398Z" fill="#F7BBC3"/>
<path id="Vector_173" opacity="0.1" d="M384.364 275.576C384.364 275.576 386 277.431 389.996 275.709C393.991 273.986 403.438 273.983 403.438 273.983L412.882 270.83C412.882 270.83 412.155 259.526 409.976 259.001C409.976 259.001 414.334 260.315 415.608 257.687L422.872 271.618C422.872 271.618 422.325 274.642 418.33 275.823L403.255 282.526C403.255 282.526 396.717 285.417 396.717 292.645C396.717 299.874 395.435 311.307 395.435 311.307C395.435 311.307 374.365 320.508 365.828 309.73C365.828 309.73 369.28 296.983 366.917 293.826C366.917 293.826 366.191 285.547 360.38 283.97L345.313 273.983C345.313 273.983 342.407 272.669 344.587 268.857L349.671 259.789C349.671 259.789 352.761 262.943 355.303 261.366L352.398 270.304L358.209 274.246C358.209 274.246 363.657 276.219 366.383 276.101C369.109 275.984 372.194 276.89 372.194 276.89C372.194 276.89 373.476 282.146 379.279 281.62C379.279 281.62 390.359 281.227 384.364 275.576Z" fill="black"/>
<path id="Vector_174" opacity="0.1" d="M384.364 275.05C384.364 275.05 386 276.905 389.996 275.183C393.991 273.461 403.438 273.473 403.438 273.473L412.882 270.32C412.882 270.32 412.155 259.016 409.976 258.491C409.976 258.491 414.334 259.805 415.608 257.177L422.872 271.108C422.872 271.108 422.325 274.132 418.33 275.313L403.255 282.022C403.255 282.022 396.717 284.913 396.717 292.141C396.717 299.37 395.435 310.803 395.435 310.803C395.435 310.803 374.365 320.004 365.828 309.226C365.828 309.226 369.28 296.479 366.917 293.322C366.917 293.322 366.191 285.043 360.38 283.466L345.304 273.476C345.304 273.476 342.399 272.162 344.578 268.35L349.663 259.282C349.663 259.282 352.752 262.436 355.295 260.859L352.389 269.797L358.2 273.739C358.2 273.739 363.648 275.712 366.374 275.594C369.101 275.477 372.186 276.383 372.186 276.383C372.186 276.383 373.468 281.639 379.27 281.113C379.279 281.094 390.359 280.702 384.364 275.05Z" fill="black"/>
<path id="Vector_175" d="M384.372 275.322L384.445 275.394L384.372 275.322Z" fill="#D39999"/>
<path id="Vector_176" d="M345.313 273.736L360.388 283.726C366.199 285.302 366.926 293.582 366.926 293.582C369.289 296.736 365.836 309.486 365.836 309.486C374.382 320.264 395.443 311.063 395.443 311.063C395.443 311.063 395.486 310.686 395.555 310.021C395.614 309.44 395.696 308.636 395.785 307.68C395.905 306.444 396.042 304.95 396.17 303.33C396.456 299.79 396.717 295.666 396.717 292.401C396.717 285.172 403.254 282.282 403.254 282.282L414.565 277.254L418.334 275.579C422.329 274.395 422.876 271.374 422.876 271.374L415.612 257.443C414.424 259.897 410.54 258.911 410.036 258.772C412.172 259.471 412.886 270.586 412.886 270.586L403.442 273.739C403.442 273.739 393.999 273.739 390 275.449C386.581 276.902 384.911 275.789 384.483 275.421C390.226 280.986 379.283 281.36 379.283 281.36C373.472 281.886 372.198 276.63 372.198 276.63C372.198 276.63 369.109 275.702 366.387 275.842C363.665 275.981 358.213 273.987 358.213 273.987L352.402 270.045L355.307 261.106C352.744 262.683 349.676 259.529 349.676 259.529L344.591 268.598C342.407 272.422 345.313 273.736 345.313 273.736Z" fill="#2F2E41"/>
<path id="Vector_177" opacity="0.1" d="M382.911 269.924C382.857 270.751 382.916 271.579 383.086 272.397C382.296 273.822 380.828 274.995 378.947 275.705C377.067 276.415 374.898 276.616 372.831 276.271C373.243 275.104 373.012 273.867 372.186 272.821L382.911 269.924Z" fill="black"/>
<path id="Vector_178" d="M374.831 275.906C379.746 275.906 383.731 273.023 383.731 269.466C383.731 265.91 379.746 263.026 374.831 263.026C369.915 263.026 365.93 265.91 365.93 269.466C365.93 273.023 369.915 275.906 374.831 275.906Z" fill="#F7BBC3"/>
<path id="Vector_179" opacity="0.1" d="M374.972 265.803C375.048 266.455 375.113 267.151 374.698 267.732C374.467 268.024 374.18 268.291 373.843 268.523L371.98 269.912C371.393 270.285 370.937 270.755 370.652 271.281C370.113 272.58 371.703 273.869 371.651 275.226C371.367 275.549 370.943 275.796 370.447 275.929C369.95 276.062 369.406 276.074 368.9 275.962C368.489 275.848 368.102 275.693 367.75 275.501L365.926 274.602C364.537 273.915 363.084 273.173 362.388 272.067C361.657 270.901 361.905 269.553 361.871 268.273C361.791 267.494 361.775 266.713 361.824 265.932C361.945 265.188 362.234 264.464 362.678 263.787C363.483 262.433 364.801 261.272 366.481 260.438C367.322 260.028 368.268 259.744 369.264 259.605C370.259 259.465 371.284 259.472 372.275 259.625C372.594 259.698 372.924 259.74 373.258 259.752C373.903 259.752 374.459 259.443 375.053 259.26C375.808 259.047 376.64 259.019 377.419 259.182C378.198 259.345 378.882 259.688 379.364 260.16C379.757 260.562 379.984 261.041 380.394 261.431C381.005 262.012 382.001 262.38 382.415 263.045C382.83 263.71 382.552 264.47 382.642 265.187C382.769 265.829 383.042 266.45 383.449 267.027C382.441 266.773 381.949 265.976 381.313 265.364C380.808 264.909 380.176 264.538 379.457 264.275C378.739 264.011 377.951 263.862 377.146 263.836C376.591 263.818 375.561 263.787 375.121 264.093C374.561 264.486 374.916 265.327 374.972 265.803Z" fill="black"/>
<path id="Vector_180" d="M374.792 265.54C374.869 266.192 374.933 266.888 374.519 267.469C374.288 267.761 374 268.028 373.664 268.261L371.776 269.655C371.19 270.026 370.734 270.492 370.447 271.015C369.908 272.314 371.498 273.603 371.447 274.96C371.162 275.284 370.739 275.53 370.242 275.663C369.745 275.796 369.202 275.808 368.695 275.696C368.284 275.582 367.897 275.427 367.545 275.236L365.746 274.348C364.358 273.662 362.905 272.92 362.208 271.813C361.478 270.647 361.726 269.299 361.691 268.019C361.612 267.241 361.596 266.459 361.644 265.679C361.766 264.935 362.055 264.21 362.499 263.533C363.304 262.179 364.622 261.018 366.302 260.185C367.143 259.774 368.089 259.491 369.084 259.351C370.08 259.212 371.104 259.219 372.096 259.372C372.415 259.444 372.745 259.487 373.079 259.499C373.724 259.499 374.28 259.189 374.873 259.007C375.629 258.793 376.461 258.766 377.24 258.929C378.019 259.091 378.703 259.435 379.185 259.907C379.578 260.309 379.804 260.788 380.215 261.177C380.826 261.759 381.821 262.127 382.236 262.791C382.65 263.456 382.373 264.217 382.462 264.934C382.59 265.575 382.863 266.197 383.27 266.773C382.261 266.52 381.77 265.722 381.133 265.11C380.629 264.656 379.997 264.285 379.278 264.021C378.56 263.758 377.772 263.608 376.967 263.583C376.412 263.564 375.382 263.533 374.942 263.839C374.378 264.223 374.72 265.061 374.792 265.54Z" fill="#74585E"/>
<g id="Group_3" opacity="0.1">
<path id="Vector_181" opacity="0.1" d="M384.441 275.388C384.389 275.341 384.364 275.313 384.364 275.313L384.441 275.388Z" fill="black"/>
<path id="Vector_182" opacity="0.1" d="M353.684 261.558C354.281 261.567 354.861 261.409 355.303 261.119L355.128 261.65C354.644 261.721 354.143 261.689 353.684 261.558Z" fill="black"/>
<path id="Vector_183" opacity="0.1" d="M385.885 276.067C390.436 281.122 380.189 281.49 380.189 281.49C379.408 281.568 378.614 281.527 377.856 281.37C378.329 281.41 378.806 281.41 379.279 281.37C379.279 281.37 390.26 280.977 384.441 275.396C384.82 275.718 385.322 275.952 385.885 276.067Z" fill="black"/>
<path id="Vector_184" opacity="0.1" d="M367.293 275.971C366.557 275.985 365.821 275.921 365.11 275.783C365.533 275.836 365.963 275.856 366.392 275.842C367.523 275.807 368.655 275.889 369.755 276.086C368.943 275.979 368.117 275.941 367.293 275.971Z" fill="black"/>
<path id="Vector_185" opacity="0.1" d="M344.587 268.61L349.671 259.542C349.876 259.743 350.095 259.936 350.329 260.12L345.497 268.727C343.318 272.54 346.223 273.854 346.223 273.854L361.298 283.843C367.109 285.42 367.836 293.7 367.836 293.7C370.199 296.853 366.746 309.603 366.746 309.603C369.037 312.494 372.228 313.932 375.677 314.526C371.887 314.059 368.332 312.615 365.849 309.471C365.849 309.471 369.301 296.723 366.939 293.567C366.939 293.567 366.212 285.287 360.401 283.71L345.313 273.736C345.313 273.736 342.407 272.422 344.587 268.61Z" fill="black"/>
<path id="Vector_186" opacity="0.1" d="M409.976 258.753C410.349 258.857 410.733 258.937 411.125 258.992C413.117 260.256 413.787 270.712 413.787 270.712L404.344 273.866C404.344 273.866 394.901 273.866 390.901 275.576C388.944 276.414 387.556 276.398 386.628 276.166C387.483 276.203 388.581 276.039 389.974 275.446C393.969 273.736 403.417 273.736 403.417 273.736L412.86 270.582C412.86 270.582 412.155 259.279 409.976 258.753Z" fill="black"/>
<path id="Vector_187" opacity="0.1" d="M411.561 259.044C412.941 259.174 414.839 259.029 415.608 257.439L416.035 258.259C414.843 259.483 412.664 259.257 411.561 259.044Z" fill="black"/>
</g>
<path id="Vector_188" opacity="0.1" d="M396.17 303.327C396.456 299.787 396.717 295.663 396.717 292.398C396.717 285.169 403.254 282.279 403.254 282.279L414.565 277.251C407.985 278.488 399.229 280.618 398.443 283.126C397.161 287.201 394.811 287.593 395.717 294.565C396.092 297.478 396.244 300.403 396.17 303.327Z" fill="black"/>
<path id="Vector_189" opacity="0.1" d="M394.444 313.36C394.444 313.36 392.807 317.039 397.349 319.404L394.444 313.36Z" fill="black"/>
<path id="Vector_190" opacity="0.1" d="M369.015 313.36C369.015 313.36 368.468 316.121 366.289 317.172L369.015 313.36Z" fill="black"/>
<path id="Vector_191" opacity="0.1" d="M392.358 366.26C392.358 366.26 401.075 369.151 408.523 369.939C412.3 370.338 413.693 369.522 413.911 368.656C414.159 369.667 413.057 370.947 408.523 370.465C401.075 369.676 392.358 366.785 392.358 366.785C392.303 366.349 392.283 365.91 392.298 365.471C392.311 365.951 392.358 366.26 392.358 366.26Z" fill="black"/>
<path id="Vector_192" opacity="0.1" d="M356.029 369.018C363.114 368.492 368.383 364.417 368.383 364.417C368.383 364.417 368.113 361.307 366.823 359.319C368.271 361.282 368.566 364.68 368.566 364.68C368.566 364.68 363.298 368.755 356.213 369.28C352.594 369.549 351.013 368.823 350.624 368.044C351.218 368.715 352.825 369.256 356.029 369.018Z" fill="black"/>
<path id="Vector_193" d="M364.55 234.257C364.548 237.004 365.895 239.662 368.349 241.757C370.803 243.853 374.205 245.25 377.95 245.7C381.695 246.149 385.538 245.622 388.797 244.213C392.055 242.803 394.515 240.603 395.74 238.003C396.965 235.403 396.874 232.573 395.485 230.018C394.095 227.462 391.496 225.346 388.152 224.047C384.807 222.748 380.934 222.35 377.222 222.924C373.51 223.499 370.2 225.008 367.883 227.184C365.723 229.211 364.551 231.698 364.55 234.257Z" fill="url(#paint2_linear)"/>
<path id="Vector_194" d="M365.139 234.257C365.134 236.904 366.428 239.467 368.791 241.488C371.153 243.508 374.431 244.857 378.039 245.292C381.647 245.727 385.352 245.221 388.493 243.864C391.634 242.507 394.006 240.387 395.188 237.882C396.37 235.377 396.284 232.65 394.946 230.187C393.607 227.723 391.103 225.684 387.88 224.432C384.657 223.18 380.925 222.796 377.347 223.35C373.77 223.904 370.581 225.359 368.348 227.456C366.272 229.405 365.144 231.796 365.139 234.257Z" fill="#E0E0E0"/>
<path id="Vector_195" d="M371.925 228.77V233.104" stroke="#535461" stroke-miterlimit="10"/>
<path id="Vector_196" d="M383.368 232.718L377.117 235.704" stroke="#535461" stroke-miterlimit="10"/>
<path id="Vector_197" d="M377.117 226.077L384.436 228.29" stroke="#535461" stroke-miterlimit="10"/>
<path id="Vector_198" d="M389.359 233.488L388.957 240.228" stroke="#535461" stroke-miterlimit="10"/>
<path id="Vector_199" d="M384.436 242.25L376.185 239.266" stroke="#535461" stroke-miterlimit="10"/>
<path id="Vector_200" d="M371.925 239.748V243.511" stroke="#535461" stroke-miterlimit="10"/>
<path id="Vector_201" d="M368.865 236.858L365.268 235.704" stroke="#535461" stroke-miterlimit="10"/>
<path id="Vector_202" d="M388.957 227.904L388.684 224.753" stroke="#535461" stroke-miterlimit="10"/>
<path id="Vector_203" d="M391.354 231.565L395.815 232.486" stroke="#535461" stroke-miterlimit="10"/>
<path id="Vector_204" d="M392.551 231.565L389.094 227.23L383.372 227.904V232.718L389.491 235.03L392.551 231.565Z" fill="#20A3FF"/>
<path id="Vector_205" d="M368.349 227.443L371.929 228.77C373.126 227.613 378.048 226.265 378.048 226.265L377.535 223.307C373.883 223.837 370.62 225.307 368.349 227.443Z" fill="#20A3FF"/>
<path id="Vector_206" d="M378.048 235.222L371.792 233.104L368.331 236.666L371.925 240.806L378.048 240.132V235.222Z" fill="#20A3FF"/>
<path id="Vector_207" d="M383.368 241.672V245.23C385.372 244.963 387.283 244.412 388.991 243.608C390.699 242.804 392.171 241.764 393.32 240.546L388.957 239.251L383.368 241.672Z" fill="#20A3FF"/>
<g id="Pelota">
<path id="Vector_208" d="M240 310.003C240.001 312.609 241.09 315.13 243.075 317.117C245.059 319.104 247.809 320.428 250.835 320.853C253.862 321.278 256.967 320.776 259.599 319.437C262.23 318.099 264.217 316.01 265.204 313.543C266.192 311.076 266.117 308.391 264.992 305.966C263.868 303.542 261.766 301.536 259.063 300.305C256.36 299.074 253.23 298.698 250.231 299.245C247.232 299.792 244.559 301.225 242.688 303.29C240.944 305.214 239.999 307.574 240 310.003Z" fill="#E0E0E0"/>
<path id="Vector_209" d="M245.692 304.597V308.863" stroke="#535461" stroke-miterlimit="10"/>
<path id="Vector_210" d="M255.289 308.485L250.046 311.426" stroke="#535461" stroke-miterlimit="10"/>
<path id="Vector_211" d="M250.046 301.943L256.182 304.125" stroke="#535461" stroke-miterlimit="10"/>
<path id="Vector_212" d="M260.31 309.244L259.976 315.88" stroke="#535461" stroke-miterlimit="10"/>
<path id="Vector_213" d="M256.182 317.873L249.264 314.933" stroke="#535461" stroke-miterlimit="10"/>
<path id="Vector_214" d="M245.692 315.408V319.115" stroke="#535461" stroke-miterlimit="10"/>
<path id="Vector_215" d="M243.124 312.562L240.107 311.426" stroke="#535461" stroke-miterlimit="10"/>
<path id="Vector_216" d="M259.976 303.744L259.746 300.644" stroke="#535461" stroke-miterlimit="10"/>
<path id="Vector_217" d="M261.985 307.349L265.728 308.256" stroke="#535461" stroke-miterlimit="10"/>
<path id="Vector_218" d="M262.989 307.349L260.087 303.08L255.289 303.744V308.485L260.425 310.761L262.989 307.349Z" fill="#20A3FF"/>
<path id="Vector_219" d="M242.688 303.29L245.679 304.597C246.683 303.461 250.806 302.132 250.806 302.132L250.379 299.228C247.323 299.75 244.591 301.192 242.688 303.29V303.29Z" fill="#20A3FF"/>
<path id="Vector_220" d="M250.824 310.95L245.581 308.863L242.679 312.373L245.692 316.45L250.824 315.786V310.95Z" fill="#20A3FF"/>
<path id="Vector_221" d="M255.289 317.292V320.81C256.969 320.548 258.571 320.006 260.003 319.215C261.436 318.425 262.67 317.401 263.634 316.203L259.976 314.929L255.289 317.292Z" fill="#20A3FF"/>
</g>
<path id="Vector_222" d="M391.954 328.136C391.954 328.136 393.386 322.776 396.457 323.123C399.529 323.47 401.546 323.835 401.546 323.835C401.546 323.835 393.672 324.284 391.954 328.136Z" fill="#20A3FF"/>
</g>
<g id="undraw_junior_soccer_6sop 1">
<path id="Vector_223" d="M538.981 286.498C538.981 286.498 527.559 282.736 529.313 288.926C531.066 295.117 540.686 291.99 540.686 291.99L538.981 286.498Z" fill="#FFB8B8"/>
<path id="Vector_224" d="M582.64 263.263C582.64 263.263 576.787 254.803 571.1 263.585C565.402 272.384 560.105 279.608 560.105 279.608L545.953 284.488L537.766 285.256L540.021 292.954L563.826 289.302C563.826 289.302 590.327 272.653 582.64 263.263Z" fill="#2F2E41"/>
<path id="Vector_225" d="M556.514 310.11C556.514 310.11 547.622 316.693 548.215 322.649C548.808 328.605 552.661 344.905 552.661 344.905L560.664 343.651C560.664 343.651 561.553 331.112 558.589 326.41L572.816 317.947L556.514 310.11Z" fill="#FFB8B8"/>
<path id="Vector_226" d="M576.224 325.627C576.224 325.627 575.631 337.225 577.113 341.927C578.595 346.629 580.077 364.183 580.077 364.183H588.376C588.376 364.183 592.229 348.823 587.487 341.927C587.487 341.927 586.005 332.836 590.155 328.448L576.224 325.627Z" fill="#FFB8B8"/>
<path id="Vector_227" d="M574.298 293.497C574.298 293.497 555.032 306.349 555.032 310.424L570.445 323.903L575.78 317.633L575.187 327.037L591.785 330.485C591.785 330.485 597.713 306.662 597.416 305.722C597.12 304.781 596.231 290.989 596.231 290.989L574.298 293.497Z" fill="#2F2E41"/>
<path id="Vector_228" d="M560.664 342.084L552.068 343.964L553.596 350.604C554.347 353.872 554.433 357.272 553.847 360.578C553.847 360.578 562.738 363.086 562.738 361.832C562.738 360.578 560.664 355.562 561.257 352.114C561.849 348.666 560.664 342.084 560.664 342.084Z" fill="white"/>
<path id="Vector_229" d="M565.11 365.593C564.813 364.339 562.351 358.655 562.248 359.616C562.146 360.578 557.404 362.145 555.625 360.264C555.625 360.264 553.254 358.07 552.365 360.264C551.476 362.459 549.697 366.22 549.697 366.22C549.697 366.22 541.695 370.295 542.88 372.489C543.12 372.933 543.784 373.12 544.691 373.137C544.67 373.195 544.659 373.257 544.659 373.319V373.541C544.659 373.678 544.71 373.809 544.802 373.906C544.893 374.002 545.017 374.057 545.146 374.057H545.356C545.486 374.057 545.61 374.002 545.701 373.906C545.793 373.809 545.844 373.678 545.844 373.541V373.319C545.844 373.239 545.826 373.16 545.791 373.089C546.033 373.066 546.285 373.037 546.543 373.001C546.475 373.091 546.437 373.203 546.437 373.319V373.541C546.437 373.678 546.488 373.809 546.58 373.906C546.671 374.002 546.795 374.057 546.925 374.057H547.135C547.264 374.057 547.388 374.002 547.48 373.906C547.571 373.809 547.623 373.678 547.623 373.541V373.319C547.622 373.227 547.599 373.137 547.554 373.058C547.51 372.979 547.447 372.914 547.37 372.87C548.053 372.749 548.765 372.596 549.473 372.426C549.426 372.506 549.401 372.598 549.401 372.692V372.914C549.401 373.051 549.452 373.182 549.544 373.279C549.635 373.375 549.759 373.43 549.889 373.43H550.099C550.228 373.43 550.352 373.375 550.444 373.279C550.535 373.182 550.587 373.051 550.587 372.914V372.692C550.586 372.592 550.559 372.495 550.508 372.411C550.456 372.327 550.383 372.261 550.297 372.221C550.828 372.084 551.348 371.941 551.843 371.8C551.797 371.88 551.772 371.971 551.772 372.065V372.287C551.772 372.424 551.823 372.555 551.915 372.652C552.006 372.749 552.13 372.803 552.26 372.803H552.47C552.599 372.803 552.723 372.749 552.815 372.652C552.906 372.555 552.958 372.424 552.958 372.287V372.065C552.957 371.955 552.924 371.848 552.862 371.76C552.801 371.672 552.714 371.607 552.615 371.575C554.355 371.056 555.625 370.609 555.625 370.609C555.625 370.609 557.1 370.041 558.885 369.274V369.466C558.885 369.603 558.937 369.734 559.028 369.831C559.12 369.927 559.244 369.982 559.373 369.982H559.583C559.713 369.982 559.837 369.927 559.928 369.831C560.02 369.734 560.071 369.603 560.071 369.466V369.244C560.071 369.166 560.054 369.088 560.021 369.018C559.988 368.948 559.941 368.887 559.882 368.839C560.241 368.68 560.602 368.516 560.96 368.349V368.525C560.96 368.662 561.012 368.794 561.103 368.89C561.195 368.987 561.319 369.041 561.448 369.041H561.658C561.787 369.041 561.911 368.987 562.003 368.89C562.094 368.794 562.146 368.662 562.146 368.525V368.303C562.146 368.22 562.127 368.139 562.09 368.065C562.054 367.992 562.001 367.928 561.937 367.881C562.324 367.69 562.696 367.5 563.04 367.313C563.038 367.33 563.035 367.346 563.035 367.363V367.585C563.035 367.722 563.086 367.853 563.178 367.95C563.269 368.047 563.393 368.101 563.523 368.101H563.733C563.862 368.101 563.986 368.047 564.078 367.95C564.169 367.853 564.221 367.722 564.221 367.585V367.363C564.22 367.244 564.182 367.129 564.111 367.037C564.039 366.945 563.94 366.881 563.83 366.858C564.659 366.349 565.181 365.897 565.11 365.593Z" fill="#2F2E41"/>
<path id="Vector_230" d="M588.969 362.772L579.579 362.145C579.579 362.145 580.149 372.489 579.01 375.938C577.872 379.386 578.441 380.639 578.441 380.639L586.693 381.266L588.969 362.772Z" fill="white"/>
<path id="Vector_231" d="M589.085 385.634C589.042 384.343 587.754 378.24 587.464 379.158C587.175 380.076 582.228 380.563 580.859 378.331C580.859 378.331 578.973 375.662 577.67 377.612C576.368 379.562 573.887 382.849 573.887 382.849C573.887 382.849 565.257 385.07 565.984 387.477C566.131 387.964 566.744 388.294 567.628 388.51C567.596 388.562 567.573 388.62 567.56 388.68L567.516 388.898C567.489 389.031 567.514 389.171 567.584 389.286C567.654 389.401 567.765 389.481 567.891 389.51L568.097 389.556C568.223 389.584 568.355 389.559 568.464 389.484C568.573 389.41 568.649 389.293 568.676 389.159L568.719 388.942C568.735 388.863 568.732 388.782 568.713 388.705C568.954 388.737 569.206 388.763 569.466 388.785C569.381 388.858 569.322 388.959 569.299 389.072L569.255 389.29C569.228 389.424 569.253 389.563 569.323 389.678C569.394 389.793 569.504 389.873 569.631 389.902L569.836 389.948C569.963 389.977 570.095 389.951 570.203 389.876C570.312 389.802 570.388 389.685 570.415 389.551L570.459 389.334C570.477 389.244 570.471 389.151 570.444 389.064C570.416 388.977 570.366 388.899 570.3 388.839C570.991 388.872 571.718 388.879 572.444 388.869C572.383 388.937 572.34 389.021 572.322 389.113L572.278 389.33C572.251 389.464 572.275 389.604 572.346 389.718C572.416 389.833 572.527 389.914 572.653 389.942L572.858 389.989C572.985 390.017 573.117 389.991 573.226 389.917C573.334 389.842 573.41 389.725 573.437 389.592L573.481 389.374C573.501 389.277 573.493 389.175 573.459 389.082C573.425 388.989 573.367 388.908 573.29 388.85C573.837 388.833 574.374 388.808 574.886 388.779C574.825 388.847 574.783 388.931 574.764 389.023L574.72 389.24C574.693 389.374 574.718 389.513 574.788 389.628C574.859 389.743 574.969 389.823 575.096 389.852L575.301 389.898C575.428 389.927 575.56 389.901 575.668 389.827C575.777 389.752 575.853 389.635 575.88 389.501L575.924 389.284C575.945 389.177 575.933 389.065 575.89 388.965C575.847 388.865 575.775 388.783 575.685 388.729C577.489 388.606 578.82 388.448 578.82 388.448C578.82 388.448 580.374 388.218 582.271 387.862L582.234 388.049C582.207 388.183 582.231 388.323 582.301 388.438C582.372 388.552 582.482 388.633 582.609 388.661L582.814 388.708C582.941 388.736 583.073 388.71 583.181 388.636C583.29 388.562 583.366 388.445 583.393 388.311L583.437 388.093C583.452 388.017 583.451 387.938 583.432 387.862C583.414 387.786 583.38 387.716 583.332 387.656C583.714 387.579 584.1 387.499 584.483 387.415L584.448 387.587C584.421 387.721 584.446 387.861 584.516 387.975C584.586 388.09 584.697 388.171 584.823 388.199L585.029 388.246C585.155 388.274 585.287 388.248 585.396 388.174C585.505 388.099 585.581 387.982 585.608 387.849L585.651 387.631C585.668 387.55 585.665 387.466 585.644 387.386C585.623 387.306 585.584 387.233 585.53 387.172C585.946 387.071 586.348 386.967 586.721 386.86C586.716 386.876 586.71 386.891 586.706 386.908L586.663 387.125C586.636 387.259 586.66 387.398 586.73 387.513C586.801 387.628 586.911 387.708 587.038 387.737L587.243 387.783C587.37 387.812 587.502 387.786 587.611 387.712C587.719 387.637 587.795 387.52 587.822 387.386L587.866 387.169C587.889 387.053 587.874 386.931 587.823 386.826C587.771 386.72 587.687 386.636 587.584 386.589C588.495 386.274 589.095 385.947 589.085 385.634Z" fill="#2F2E41"/>
<path id="Vector_232" d="M574.298 252.747C579.045 252.747 582.893 248.677 582.893 243.656C582.893 238.636 579.045 234.566 574.298 234.566C569.551 234.566 565.702 238.636 565.702 243.656C565.702 248.677 569.551 252.747 574.298 252.747Z" fill="#FFB8B8"/>
<path id="Vector_233" d="M582.004 242.716C582.004 242.716 586.746 248.985 589.117 248.672L578.744 257.135C578.744 257.135 577.558 251.806 576.076 251.179C574.594 250.552 582.004 242.716 582.004 242.716Z" fill="#FFB8B8"/>
<path id="Vector_234" d="M600.528 289.265C600.528 289.265 600.528 254.675 595.041 251.696C589.558 248.718 585.931 247.018 585.931 247.018C585.85 248.153 585.545 249.258 585.036 250.26C584.526 251.263 583.823 252.141 582.973 252.838C581.155 254.323 579.344 255.554 578.332 255.558L578.299 255.411L578.176 255.038L575.187 259.956C575.187 259.956 572.519 260.583 571.63 262.464C571.149 263.481 573.418 273.724 572.075 282.996C570.936 290.862 566.135 297.962 565.999 298.826C565.769 300.285 571.604 296.462 574.231 294.674C574.27 294.72 574.298 294.751 574.298 294.751C574.298 294.751 572.816 295.378 575.78 294.437C577.459 293.904 579.804 293.875 581.521 293.949C581.519 294.494 581.532 294.926 581.559 295.221C581.856 298.355 596.675 302.744 598.75 301.804C600.825 300.863 600.528 289.265 600.528 289.265Z" fill="#2F2E41"/>
<path id="Vector_235" d="M590.155 301.177C590.155 301.177 581.263 309.64 587.191 311.207C593.119 312.775 595.49 302.43 595.49 302.43L590.155 301.177Z" fill="#FFB8B8"/>
<path id="Vector_236" d="M579.781 323.119C579.781 323.119 583.93 319.044 586.302 321.238C588.673 323.432 590.155 325 590.155 325C590.155 325 583.338 320.611 579.781 323.119Z" fill="#20A3FF"/>
<path id="Vector_237" d="M580.859 371.878C580.859 371.878 583.197 369.581 584.534 370.818C585.87 372.054 586.706 372.938 586.706 372.938C586.706 372.938 582.863 370.464 580.859 371.878Z" fill="#2F2E41"/>
<path id="Vector_238" d="M554.657 350.514C554.657 350.514 556.262 347.596 557.881 348.368C559.5 349.14 560.542 349.728 560.542 349.728C560.542 349.728 556.186 348.544 554.657 350.514Z" fill="#2F2E41"/>
<path id="Vector_239" d="M598.289 255.997C595.351 249.751 586.411 253.157 587.864 259.962C587.885 260.064 587.908 260.166 587.932 260.27C589.463 266.711 591.965 272.85 595.342 278.451L592.081 293.81L588.525 301.647L595.934 303.528L605.122 280.018C605.122 280.018 602.588 265.137 598.289 255.997Z" fill="#2F2E41"/>
<path id="Vector_240" opacity="0.2" d="M594.008 278.921L588.376 301.49L593.119 290.832L594.008 278.921Z" fill="black"/>
<path id="Vector_241" d="M579.696 233.06C579.696 233.06 574.945 227.77 570.162 231.101C565.38 234.433 563.111 237.669 563.58 239.922C564.049 242.176 565.437 245.31 565.437 245.31C565.437 245.31 564.574 240.642 568.534 240.296C572.494 239.951 577.965 237.179 577.965 237.179L581.666 245.537C581.666 245.537 582.189 243.601 583.639 244.156C585.09 244.712 583.966 233.679 579.696 233.06Z" fill="#2F2E41"/>
<g id="Pelota_2">
<path id="Vector_242" d="M522 351.37C522.001 353.59 523.09 355.737 525.075 357.429C527.059 359.121 529.809 360.249 532.835 360.611C535.862 360.973 538.967 360.545 541.599 359.405C544.23 358.265 546.217 356.486 547.204 354.385C548.192 352.284 548.117 349.997 546.992 347.933C545.868 345.868 543.766 344.159 541.063 343.111C538.36 342.063 535.23 341.743 532.231 342.209C529.232 342.674 526.559 343.895 524.688 345.654C522.944 347.292 521.999 349.302 522 351.37Z" fill="#E0E0E0"/>
<path id="Vector_243" d="M527.692 346.767V350.399" stroke="#535461" stroke-miterlimit="10"/>
<path id="Vector_244" d="M537.289 350.078L532.046 352.582" stroke="#535461" stroke-miterlimit="10"/>
<path id="Vector_245" d="M532.046 344.507L538.182 346.365" stroke="#535461" stroke-miterlimit="10"/>
<path id="Vector_246" d="M542.31 350.724L541.976 356.376" stroke="#535461" stroke-miterlimit="10"/>
<path id="Vector_247" d="M538.182 358.073L531.264 355.569" stroke="#535461" stroke-miterlimit="10"/>
<path id="Vector_248" d="M527.692 355.974V359.131" stroke="#535461" stroke-miterlimit="10"/>
<path id="Vector_249" d="M525.124 353.55L522.107 352.582" stroke="#535461" stroke-miterlimit="10"/>
<path id="Vector_250" d="M541.976 346.04L541.746 343.4" stroke="#535461" stroke-miterlimit="10"/>
<path id="Vector_251" d="M543.985 349.11L547.728 349.883" stroke="#535461" stroke-miterlimit="10"/>
<path id="Vector_252" d="M544.989 349.11L542.087 345.474L537.289 346.04V350.078L542.425 352.016L544.989 349.11Z" fill="#20A3FF"/>
<path id="Vector_253" d="M524.688 345.654L527.679 346.767C528.683 345.799 532.806 344.667 532.806 344.667L532.379 342.194C529.323 342.639 526.591 343.867 524.688 345.654Z" fill="#20A3FF"/>
<path id="Vector_254" d="M532.824 352.177L527.581 350.399L524.679 353.389L527.692 356.861L532.824 356.295V352.177Z" fill="#20A3FF"/>
<path id="Vector_255" d="M537.289 357.579V360.574C538.969 360.351 540.571 359.89 542.003 359.216C543.436 358.543 544.67 357.671 545.634 356.651L541.976 355.566L537.289 357.579Z" fill="#20A3FF"/>
</g>
</g>
</g>
<defs>
<linearGradient id="paint0_linear" x1="271.258" y1="266.672" x2="271.258" y2="266.594" gradientUnits="userSpaceOnUse">
<stop stop-color="#808080" stop-opacity="0.25"/>
<stop offset="0.54" stop-color="#808080" stop-opacity="0.12"/>
<stop offset="1" stop-color="#808080" stop-opacity="0.1"/>
</linearGradient>
<linearGradient id="paint1_linear" x1="42726.2" y1="82017.2" x2="42726.2" y2="34626.1" gradientUnits="userSpaceOnUse">
<stop stop-color="#808080" stop-opacity="0.25"/>
<stop offset="0.54" stop-color="#808080" stop-opacity="0.12"/>
<stop offset="1" stop-color="#808080" stop-opacity="0.1"/>
</linearGradient>
<linearGradient id="paint2_linear" x1="16974.7" y1="6483.71" x2="16974.7" y2="4744.59" gradientUnits="userSpaceOnUse">
<stop stop-color="#808080" stop-opacity="0.25"/>
<stop offset="0.54" stop-color="#808080" stop-opacity="0.12"/>
<stop offset="1" stop-color="#808080" stop-opacity="0.1"/>
</linearGradient>
<clipPath id="clip0">
<rect width="948.039" height="632.853" fill="white"/>
</clipPath>
<clipPath id="clip1">
<rect width="489" height="247" fill="white" transform="translate(108 178)"/>
</clipPath>
</defs>
</svg>
