<svg width="768" height="608" viewBox="0 0 768 608" fill="none" xmlns="http://www.w3.org/2000/svg">
<g id="videos" clip-path="url(#clip0)">
<path id="Vector" d="M767.92 474.03C767.941 478.098 766.346 482.009 763.484 484.9C760.622 487.792 756.729 489.429 752.661 489.45H81.2602C79.2457 489.44 77.2531 489.032 75.396 488.252C73.5389 487.471 71.8537 486.333 70.4367 484.901C69.0197 483.469 67.8985 481.772 67.1373 479.907C66.3761 478.042 65.9897 476.045 66.0002 474.03V15.42C65.9789 11.3516 67.5747 7.44146 70.4364 4.54965C73.2981 1.65784 77.1914 0.0212757 81.2598 0H752.66C754.675 0.0104785 756.667 0.417634 758.524 1.19821C760.382 1.97879 762.067 3.11751 763.484 4.54935C764.901 5.98119 766.022 7.67812 766.783 9.54324C767.544 11.4084 767.931 13.4052 767.92 15.4196V15.42V474.03Z" fill="#E6E6E6"/>
<path id="Vector_2" d="M760 466.52C760 470.474 758.429 474.267 755.633 477.063C752.837 479.859 749.045 481.43 745.09 481.43H89.2903C85.336 481.43 81.5436 479.859 78.7474 477.063C75.9512 474.267 74.3804 470.474 74.3804 466.52V23.14C74.3804 19.1857 75.9512 15.3932 78.7474 12.5971C81.5436 9.80091 85.336 8.23004 89.2903 8.23004H745.12C749.07 8.23799 752.854 9.81236 755.644 12.6077C758.434 15.403 760 19.1908 760 23.14V466.52Z" fill="white"/>
<path id="c6fe725a-3b03-4a96-90af-cfbd2676500a" d="M109.43 27.48H725.65C727.997 27.48 730.249 28.4124 731.908 30.0721C733.568 31.7318 734.5 33.9828 734.5 36.33V451.61C734.5 453.957 733.568 456.208 731.908 457.868C730.249 459.528 727.997 460.46 725.65 460.46H109.43C107.083 460.46 104.832 459.528 103.172 457.868C101.513 456.208 100.58 453.957 100.58 451.61V36.33C100.58 33.9828 101.513 31.7318 103.172 30.0721C104.832 28.4124 107.083 27.48 109.43 27.48V27.48Z" fill="#E6E6E6"/>
<path id="Vector_3" d="M117.23 37.44H717.18C719.527 37.44 721.778 38.3724 723.438 40.0321C725.098 41.6918 726.03 43.9428 726.03 46.29V439.41C726.03 441.757 725.098 444.008 723.438 445.668C721.778 447.328 719.527 448.26 717.18 448.26H117.23C114.883 448.26 112.632 447.328 110.972 445.668C109.313 444.008 108.38 441.757 108.38 439.41V46.29C108.38 43.9428 109.313 41.6918 110.972 40.0321C112.632 38.3724 114.883 37.44 117.23 37.44V37.44Z" fill="white"/>
<path id="Vector_4" d="M540.836 310.533C538.475 310.531 536.14 310.034 533.983 309.073C533.481 308.85 533.002 308.578 532.554 308.261L488.952 277.569C486.741 276.013 484.937 273.947 483.691 271.547C482.445 269.147 481.794 266.483 481.793 263.779V221.922C481.794 219.217 482.445 216.553 483.691 214.153C484.936 211.753 486.741 209.688 488.952 208.131L532.554 177.439C533.002 177.122 533.481 176.85 533.983 176.628C536.551 175.486 539.364 175.004 542.166 175.225C544.968 175.447 547.67 176.365 550.027 177.897C552.384 179.428 554.321 181.524 555.662 183.995C557.003 186.465 557.705 189.231 557.705 192.042V293.658C557.705 298.132 555.928 302.423 552.764 305.587C549.601 308.75 545.31 310.528 540.836 310.528L540.836 310.533Z" fill="#3F3D56"/>
<path id="Vector_5" d="M443.255 318.762H321.647C296.837 318.742 276.731 302.704 276.705 282.915V202.785C276.731 182.996 296.837 166.959 321.647 166.938H443.572C468.206 166.961 488.168 182.884 488.197 202.532V282.915C488.172 302.704 468.065 318.742 443.255 318.762Z" fill="#3F3D56"/>
<path id="Vector_6" d="M659.879 422.981C679.854 422.981 696.047 406.788 696.047 386.814C696.047 366.839 679.854 350.646 659.879 350.646C639.905 350.646 623.712 366.839 623.712 386.814C623.712 406.788 639.905 422.981 659.879 422.981Z" fill="#E6E6E6"/>
<path id="Vector_7" d="M678.665 386.165L649.836 369.521C649.722 369.455 649.593 369.421 649.461 369.421C649.33 369.421 649.201 369.455 649.087 369.521C648.973 369.587 648.879 369.681 648.813 369.795C648.747 369.909 648.713 370.038 648.713 370.169V403.458C648.713 403.59 648.747 403.719 648.813 403.833C648.879 403.946 648.973 404.041 649.087 404.107C649.201 404.172 649.33 404.207 649.461 404.207C649.593 404.207 649.722 404.172 649.836 404.107L678.665 387.462C678.779 387.396 678.873 387.302 678.939 387.188C679.004 387.074 679.039 386.945 679.039 386.814C679.039 386.682 679.004 386.553 678.939 386.439C678.873 386.326 678.779 386.231 678.665 386.165L649.836 369.521C649.722 369.455 649.593 369.421 649.461 369.421C649.33 369.421 649.201 369.455 649.087 369.521C648.973 369.587 648.879 369.681 648.813 369.795C648.747 369.909 648.713 370.038 648.713 370.169V403.458C648.713 403.59 648.747 403.719 648.813 403.833C648.879 403.946 648.973 404.041 649.087 404.107C649.201 404.172 649.33 404.207 649.461 404.207C649.593 404.207 649.722 404.172 649.836 404.107L678.665 387.462C678.779 387.396 678.873 387.302 678.939 387.188C679.004 387.074 679.039 386.945 679.039 386.814C679.039 386.682 679.004 386.553 678.939 386.439C678.873 386.326 678.779 386.231 678.665 386.165V386.165Z" fill="white"/>
<path id="Vector_8" d="M612.92 529.03C612.941 533.098 611.346 537.009 608.484 539.9C605.622 542.792 601.729 544.429 597.661 544.45H-73.7398C-75.7542 544.44 -77.7469 544.032 -79.604 543.252C-81.4611 542.471 -83.1463 541.333 -84.5633 539.901C-85.9803 538.469 -87.1014 536.772 -87.8627 534.907C-88.6239 533.042 -89.0103 531.045 -88.9998 529.03V70.42C-89.0211 66.3516 -87.4253 62.4415 -84.5636 59.5497C-81.7019 56.6578 -77.8086 55.0213 -73.7402 55H597.66C599.675 55.0105 601.667 55.4176 603.524 56.1982C605.382 56.9788 607.067 58.1175 608.484 59.5493C609.901 60.9812 611.022 62.6781 611.783 64.5432C612.544 66.4084 612.931 68.4052 612.92 70.4196V70.42V529.03Z" fill="#E6E6E6"/>
<path id="Vector_9" d="M605 521.52C605 525.474 603.429 529.267 600.633 532.063C597.837 534.859 594.045 536.43 590.09 536.43H-65.7099C-69.6643 536.43 -73.4567 534.859 -76.2528 532.063C-79.049 529.267 -80.6199 525.474 -80.6199 521.52V78.14C-80.6199 74.1857 -79.049 70.3932 -76.2528 67.5971C-73.4567 64.8009 -69.6643 63.23 -65.7099 63.23H590.12C594.069 63.238 597.854 64.8124 600.644 67.6077C603.433 70.403 605 74.1908 605 78.14V521.52Z" fill="white"/>
<path id="c6fe725a-3b03-4a96-90af-cfbd2676500a_2" d="M-45.5697 82.48H570.65C572.997 82.48 575.249 83.4124 576.908 85.0721C578.568 86.7318 579.5 88.9828 579.5 91.33V506.61C579.5 508.957 578.568 511.208 576.908 512.868C575.249 514.528 572.997 515.46 570.65 515.46H-45.5697C-47.9168 515.46 -50.1679 514.528 -51.8276 512.868C-53.4873 511.208 -54.4197 508.957 -54.4197 506.61V91.33C-54.4197 88.9828 -53.4873 86.7318 -51.8276 85.0721C-50.1679 83.4124 -47.9168 82.48 -45.5697 82.48Z" fill="#E6E6E6"/>
<path id="Vector_10" d="M-37.7699 92.44H562.18C564.527 92.44 566.778 93.3724 568.438 95.0321C570.098 96.6918 571.03 98.9428 571.03 101.29V494.41C571.03 496.757 570.098 499.008 568.438 500.668C566.778 502.328 564.527 503.26 562.18 503.26H-37.7699C-40.117 503.26 -42.3681 502.328 -44.0278 500.668C-45.6875 499.008 -46.6199 496.757 -46.6199 494.41V101.29C-46.6199 98.9428 -45.6875 96.6918 -44.0278 95.0321C-42.3681 93.3724 -40.117 92.44 -37.7699 92.44V92.44Z" fill="white"/>
<path id="Vector_11" d="M385.836 365.533C383.475 365.531 381.14 365.034 378.983 364.073C378.481 363.85 378.002 363.578 377.554 363.261L333.952 332.569C331.741 331.013 329.937 328.947 328.691 326.547C327.445 324.147 326.794 321.483 326.793 318.779V276.922C326.794 274.217 327.445 271.553 328.691 269.153C329.936 266.753 331.741 264.688 333.952 263.131L377.554 232.439C378.002 232.122 378.481 231.85 378.983 231.628C381.551 230.486 384.364 230.004 387.166 230.225C389.968 230.447 392.67 231.365 395.027 232.897C397.384 234.428 399.321 236.524 400.662 238.995C402.003 241.465 402.705 244.231 402.705 247.042V348.658C402.705 353.132 400.928 357.423 397.764 360.587C394.601 363.75 390.31 365.528 385.836 365.528L385.836 365.533Z" fill="#3F3D56"/>
<path id="Vector_12" d="M288.255 373.762H166.647C141.837 373.742 121.731 357.704 121.705 337.915V257.785C121.731 237.996 141.837 221.959 166.647 221.938H288.572C313.206 221.961 333.168 237.884 333.197 257.532V337.915C333.172 357.704 313.065 373.742 288.255 373.762Z" fill="#3F3D56"/>
<path id="Vector_13" d="M504.879 477.981C524.854 477.981 541.047 461.788 541.047 441.814C541.047 421.839 524.854 405.646 504.879 405.646C484.905 405.646 468.712 421.839 468.712 441.814C468.712 461.788 484.905 477.981 504.879 477.981Z" fill="#E6E6E6"/>
<path id="Vector_14" d="M523.665 441.165L494.836 424.521C494.722 424.455 494.593 424.421 494.461 424.421C494.33 424.421 494.201 424.455 494.087 424.521C493.973 424.587 493.879 424.681 493.813 424.795C493.747 424.909 493.713 425.038 493.713 425.169V458.458C493.713 458.59 493.747 458.719 493.813 458.833C493.879 458.946 493.973 459.041 494.087 459.107C494.201 459.172 494.33 459.207 494.461 459.207C494.593 459.207 494.722 459.172 494.836 459.107L523.665 442.462C523.779 442.396 523.873 442.302 523.939 442.188C524.004 442.074 524.039 441.945 524.039 441.814C524.039 441.682 524.004 441.553 523.939 441.439C523.873 441.326 523.779 441.231 523.665 441.165L494.836 424.521C494.722 424.455 494.593 424.421 494.461 424.421C494.33 424.421 494.201 424.455 494.087 424.521C493.973 424.587 493.879 424.681 493.813 424.795C493.747 424.909 493.713 425.038 493.713 425.169V458.458C493.713 458.59 493.747 458.719 493.813 458.833C493.879 458.946 493.973 459.041 494.087 459.107C494.201 459.172 494.33 459.207 494.461 459.207C494.593 459.207 494.722 459.172 494.836 459.107L523.665 442.462C523.779 442.396 523.873 442.302 523.939 442.188C524.004 442.074 524.039 441.945 524.039 441.814C524.039 441.682 524.004 441.553 523.939 441.439C523.873 441.326 523.779 441.231 523.665 441.165Z" fill="white"/>
<path id="Vector_15" d="M460.92 592.03C460.941 596.098 459.346 600.009 456.484 602.9C453.622 605.792 449.729 607.429 445.661 607.45H-225.74C-227.754 607.44 -229.747 607.032 -231.604 606.252C-233.461 605.471 -235.146 604.333 -236.563 602.901C-237.98 601.469 -239.101 599.772 -239.863 597.907C-240.624 596.042 -241.01 594.045 -241 592.03V133.42C-241.021 129.352 -239.425 125.441 -236.564 122.55C-233.702 119.658 -229.809 118.021 -225.74 118H445.66C447.675 118.01 449.667 118.418 451.524 119.198C453.382 119.979 455.067 121.118 456.484 122.549C457.901 123.981 459.022 125.678 459.783 127.543C460.544 129.408 460.931 131.405 460.92 133.42V133.42V592.03Z" fill="#E6E6E6"/>
<path id="Vector_16" d="M453 584.52C453 588.474 451.429 592.267 448.633 595.063C445.837 597.859 442.045 599.43 438.09 599.43H-217.71C-221.664 599.43 -225.457 597.859 -228.253 595.063C-231.049 592.267 -232.62 588.474 -232.62 584.52V141.14C-232.62 137.186 -231.049 133.393 -228.253 130.597C-225.457 127.801 -221.664 126.23 -217.71 126.23H438.12C442.069 126.238 445.854 127.812 448.644 130.608C451.433 133.403 453 137.191 453 141.14V584.52Z" fill="white"/>
<path id="c6fe725a-3b03-4a96-90af-cfbd2676500a_3" d="M-197.57 145.48H418.65C420.997 145.48 423.249 146.412 424.908 148.072C426.568 149.732 427.5 151.983 427.5 154.33V569.61C427.5 571.957 426.568 574.208 424.908 575.868C423.249 577.528 420.997 578.46 418.65 578.46H-197.57C-199.917 578.46 -202.168 577.528 -203.828 575.868C-205.487 574.208 -206.42 571.957 -206.42 569.61V154.33C-206.42 151.983 -205.487 149.732 -203.828 148.072C-202.168 146.412 -199.917 145.48 -197.57 145.48V145.48Z" fill="#E6E6E6"/>
<path id="Vector_17" d="M-189.77 155.44H410.18C411.342 155.44 412.493 155.669 413.567 156.114C414.641 156.558 415.616 157.21 416.438 158.032C417.26 158.854 417.912 159.83 418.356 160.903C418.801 161.977 419.03 163.128 419.03 164.29V557.41C419.03 558.572 418.801 559.723 418.356 560.797C417.912 561.87 417.26 562.846 416.438 563.668C415.616 564.49 414.641 565.142 413.567 565.586C412.493 566.031 411.342 566.26 410.18 566.26H-189.77C-192.117 566.26 -194.368 565.328 -196.028 563.668C-197.687 562.008 -198.62 559.757 -198.62 557.41V164.29C-198.62 161.943 -197.687 159.692 -196.028 158.032C-194.368 156.372 -192.117 155.44 -189.77 155.44V155.44Z" fill="white"/>
<path id="Vector_18" d="M281.836 414.533C279.475 414.531 277.14 414.034 274.983 413.073C274.481 412.85 274.002 412.578 273.554 412.261L229.952 381.569C227.741 380.013 225.937 377.947 224.691 375.547C223.445 373.147 222.794 370.483 222.793 367.779V325.922C222.794 323.217 223.445 320.553 224.691 318.153C225.936 315.753 227.741 313.688 229.952 312.131L273.554 281.439C274.002 281.122 274.481 280.85 274.983 280.628C277.551 279.486 280.364 279.004 283.166 279.225C285.968 279.447 288.67 280.365 291.027 281.897C293.384 283.428 295.321 285.524 296.662 287.995C298.003 290.465 298.705 293.231 298.705 296.042V397.658C298.705 402.132 296.928 406.423 293.764 409.587C290.601 412.75 286.31 414.528 281.836 414.528L281.836 414.533Z" fill="#016EBA"/>
<path id="Vector_19" d="M184.255 422.762H62.6473C37.8371 422.742 17.7308 406.704 17.7053 386.915V306.785C17.7308 286.996 37.8371 270.959 62.6473 270.938H184.572C209.206 270.961 229.168 286.884 229.197 306.532V386.915C229.172 406.704 209.065 422.742 184.255 422.762Z" fill="#016EBA"/>
<path id="Vector_20" d="M352.879 540.981C372.854 540.981 389.047 524.788 389.047 504.814C389.047 484.839 372.854 468.646 352.879 468.646C332.905 468.646 316.712 484.839 316.712 504.814C316.712 524.788 332.905 540.981 352.879 540.981Z" fill="#008EF5"/>
<path id="Vector_21" d="M371.665 504.165L342.836 487.521C342.722 487.455 342.593 487.421 342.461 487.421C342.33 487.421 342.201 487.455 342.087 487.521C341.973 487.587 341.879 487.681 341.813 487.795C341.747 487.909 341.713 488.038 341.713 488.169V521.458C341.713 521.59 341.747 521.719 341.813 521.833C341.879 521.946 341.973 522.041 342.087 522.107C342.201 522.172 342.33 522.207 342.461 522.207C342.593 522.207 342.722 522.172 342.836 522.107L371.665 505.462C371.779 505.396 371.873 505.302 371.939 505.188C372.004 505.074 372.039 504.945 372.039 504.814C372.039 504.682 372.004 504.553 371.939 504.439C371.873 504.326 371.779 504.231 371.665 504.165L342.836 487.521C342.722 487.455 342.593 487.421 342.461 487.421C342.33 487.421 342.201 487.455 342.087 487.521C341.973 487.587 341.879 487.681 341.813 487.795C341.747 487.909 341.713 488.038 341.713 488.169V521.458C341.713 521.59 341.747 521.719 341.813 521.833C341.879 521.946 341.973 522.041 342.087 522.107C342.201 522.172 342.33 522.207 342.461 522.207C342.593 522.207 342.722 522.172 342.836 522.107L371.665 505.462C371.779 505.396 371.873 505.302 371.939 505.188C372.004 505.074 372.039 504.945 372.039 504.814C372.039 504.682 372.004 504.553 371.939 504.439C371.873 504.326 371.779 504.231 371.665 504.165V504.165Z" fill="white"/>
</g>
<defs>
<clipPath id="clip0">
<rect width="1008.92" height="607.45" fill="white" transform="translate(-241)"/>
</clipPath>
</defs>
</svg>
